<?xml version="1.0" encoding="UTF-8" standalone="no"?>
<!-- Created with Inkscape (http://www.inkscape.org/) -->

<svg
   xmlns:dc="http://purl.org/dc/elements/1.1/"
   xmlns:cc="http://creativecommons.org/ns#"
   xmlns:rdf="http://www.w3.org/1999/02/22-rdf-syntax-ns#"
   xmlns:svg="http://www.w3.org/2000/svg"
   xmlns="http://www.w3.org/2000/svg"
   xmlns:sodipodi="http://sodipodi.sourceforge.net/DTD/sodipodi-0.dtd"
   xmlns:inkscape="http://www.inkscape.org/namespaces/inkscape"
   width="861.37982"
   height="462.68701"
   id="svg2"
   version="1.1"
   inkscape:version="0.48.3.1 r9886"
   sodipodi:docname="hal_deletes_managers.svg"
   inkscape:export-filename="/home/arthurb/projects/vim/plugins/vim_waz_ere/vimmified/images/hal_deletes_managers.png"
   inkscape:export-xdpi="31.35"
   inkscape:export-ydpi="31.35">
  <defs
     id="defs4" />
  <sodipodi:namedview
     id="base"
     pagecolor="#ffffff"
     bordercolor="#666666"
     borderopacity="1.0"
     inkscape:pageopacity="0.0"
     inkscape:pageshadow="2"
     inkscape:zoom="1.0984499"
     inkscape:cx="387.81393"
     inkscape:cy="248.98414"
     inkscape:document-units="px"
     inkscape:current-layer="layer1"
     showgrid="false"
     inkscape:window-width="1440"
     inkscape:window-height="847"
     inkscape:window-x="0"
     inkscape:window-y="31"
     inkscape:window-maximized="1"
     fit-margin-top="0"
     fit-margin-left="0"
     fit-margin-right="0"
     fit-margin-bottom="0" />
  <metadata
     id="metadata7">
    <rdf:RDF>
      <cc:Work
         rdf:about="">
        <dc:format>image/svg+xml</dc:format>
        <dc:type
           rdf:resource="http://purl.org/dc/dcmitype/StillImage" />
        <dc:title></dc:title>
      </cc:Work>
    </rdf:RDF>
  </metadata>
  <g
     inkscape:label="Layer 1"
     inkscape:groupmode="layer"
     id="layer1"
     transform="translate(-1192.9161,-441.20013)">
    <path
       style="color:#000000;fill:#eeeeee;fill-opacity:1;fill-rule:nonzero;stroke:none;stroke-width:6;marker:none;visibility:visible;display:inline;overflow:visible;enable-background:accumulate"
       d="m 139.86029,208.51123 c -4.89042,1.35915 -7.30986,6.41652 -10.78993,9.70165 -0.95884,1.19031 -3.75449,2.45622 -1.652,3.99444 7.46256,7.9757 19.03177,13.84384 30.10357,10.79306 6.45493,-1.57544 11.50918,-6.57328 14.77453,-12.13315 -0.36425,-2.1245 -3.34635,-1.49972 -4.85746,-2.442 -9.0853,-3.0545 -17.44176,-8.4725 -26.99475,-9.94055 -0.19461,0.01 -0.39152,-0.02 -0.58396,0.0266 z m 6.60934,8.1754 c 4.85195,-0.3375 8.02472,6.04763 4.99018,9.87418 -2.42858,3.58283 -9.02773,3.28472 -10.61741,-1.02192 -2.13724,-4.07179 1.2175,-8.8293 5.62723,-8.85226 z"
       id="path3220"
       inkscape:connector-curvature="0"
       transform="translate(1631.0707,441.20013)" />
    <path
       style="color:#000000;fill:#eeeeee;fill-opacity:1;fill-rule:nonzero;stroke:none;stroke-width:6;marker:none;visibility:visible;display:inline;overflow:visible;enable-background:accumulate"
       d="m 294.88763,202.97691 c -6.13463,1.40315 -11.29965,5.50507 -16.82114,8.40717 -2.72,1.92075 -6.16631,3.12191 -8.48809,5.42199 -0.17165,2.44192 2.69273,3.83852 4.19388,5.41488 6.81959,5.76821 17.11379,5.25682 24.42002,0.75649 5.28553,-3.11835 10.01473,-7.56706 12.75416,-13.05941 0.13366,-2.37103 -3.32333,-2.21877 -4.75833,-3.30368 -3.69286,-1.23439 -7.31379,-3.6522 -11.3005,-3.63744 z m -9.36985,8.2683 c 4.58917,-0.36052 7.99019,5.04687 5.75994,9.05133 -2.21155,4.73686 -10.19568,4.09316 -11.4668,-0.94229 -1.01475,-3.35657 0.86182,-7.33849 4.49913,-7.94978 0.39372,-0.0948 0.80025,-0.14774 1.20773,-0.15926 z"
       id="path3222"
       inkscape:connector-curvature="0"
       transform="translate(1631.0707,441.20013)" />
    <path
       style="color:#000000;fill:#d9bb7a;fill-opacity:1;fill-rule:nonzero;stroke:none;stroke-width:7.99726915;marker:none;visibility:visible;display:inline;overflow:visible;enable-background:accumulate"
       d="m 1822.8133,492.56087 c -17.1599,1.94228 -44.7743,1.54027 -45.0263,20.53465 -5.0513,1.30948 -14.3269,-8.5287 -7.5017,4.49819 0.2969,18.11095 -23.5548,-10.80812 -32.4547,-6.1352 -14.4546,3.37739 -28.688,12.20547 -35.5838,23.9534 -14.1383,-5.19219 -1.079,20.0266 -10.0616,22.27218 12.2398,9.36643 -4.1197,21.23845 -9.6559,6.99288 -23.681,-7.54009 22.6397,24.36514 -3.0609,19.21939 -10.5264,-2.14832 4.4171,19.08864 -9.7567,12.92917 -11.2012,-6.46868 -11.8216,16.59492 -1.7281,19.03054 -18.4103,11.71386 1.8099,39.84766 0.047,59.03491 -1.0478,17.11076 -3.2222,30.07458 -1.9439,56.39663 -30.7361,-7.20681 -28.964,50.93195 -0.1819,45.74032 16.4655,1.9589 18.7999,-12.55519 27.1607,-21.49167 12.6669,40.19184 34.6149,79.15474 70.9734,102.36617 42.3607,27.34164 96.841,43.87543 146.3003,27.20786 38.8828,-15.3951 70.6615,-48.57231 81.6605,-89.29093 4.7956,-16.07192 15.6071,-35.88321 -3.9932,-44.5733 3.6995,-12.98657 26.685,6.75128 37.4822,-4.9241 19.5183,-6.41421 22.7744,-35.15527 3.7052,-44.04423 -8.9303,-9.02304 -31.1856,7.94469 -29.0997,-11.49206 8.0379,-18.80249 1.8804,-42.21737 0.7089,-62.6092 -3.3797,-12.22907 -2.4038,-30.8109 -16.9137,-31.39669 4.8398,-10.79785 4.3544,-26.12077 -10.6023,-15.80987 -13.8674,0.006 -8.2772,-26.03598 -26.0567,-21.98678 -4.2759,-10.49109 -13.2271,-9.67916 -16.3594,-20.85076 -12.5179,3.23769 -14.5291,-15.35589 -23.337,-11.89282 -4.4713,14.67485 -23.5533,-11.86656 -28.7895,-18.34675 -12.9584,-0.49451 15.6564,29.69513 -4.5477,23.83733 -4.2052,-12.56888 -7.8925,-4.54859 -12.3346,-1.35756 -8.487,-16.30866 -17.6305,-42.54769 -39.0493,-37.8117 z m 32.1557,88.16008 c 10.0961,-0.26745 35.8422,25.8085 18.1899,27.07812 -4.0162,-7.31156 -35.8198,-21.08853 -18.1899,-27.07812 z m 51.649,6.45613 c 12.3195,13.93506 26.6813,34.73855 47.9352,30.79415 19.06,-6.1035 10.176,16.26245 -4.4426,11.72455 -21.7217,0.57016 -39.1403,-17.69338 -49.4611,-34.63094 -2.6119,-4.37204 1.9932,-8.08952 5.9685,-7.88776 z m -68.1851,12.49573 c 14.1563,-1.20144 16.6235,21.6201 1.0728,12.17248 -4.2472,-2.78332 -9.0222,-10.41418 -1.0728,-12.17248 z m -85.7623,2.6241 c 24.5199,-3.38522 35.1964,27.59879 61.2853,17.93701 13.6463,-2.2977 17.9502,10.49508 1.8805,10.91449 -21.2912,6.30671 -40.3886,-7.02399 -56.139,-19.3118 -9.3435,-3.36857 -36.4952,23.82041 -32.1005,2.06974 7.1105,-5.83625 15.3186,-12.23738 25.0737,-11.60944 z m 175.1485,36.77911 c 16.2861,-2.12244 35.6065,11.77737 16.2444,24.6999 -10.6679,16.35747 -36.9999,17.99995 -48.4412,1.90048 -11.098,-16.05785 15.9227,-22.57769 27.3668,-26.21297 l 2.4146,-0.28528 z m -153.2393,4.41516 c 16.3535,4.82072 31.4137,11.62183 48.6917,11.87095 -3.5149,12.94673 -24.6099,26.95982 -40.0442,30.42416 -14.5317,2.48995 -29.4921,-9.87435 -34.4344,-22.03521 2.7578,-11.4506 13.8559,-20.5408 25.7869,-20.2599 z m 83.9713,62.31206 c 23.1914,-0.64205 32.2306,27.38276 14.7832,41.9924 -4.0258,11.2937 -34.3885,15.80097 -19.3578,0.31835 15.854,-5.71551 26.0483,-30.62953 2.1168,-32.03245 -7.5465,-4.26741 -6.8996,-10.56044 2.4578,-10.2783 z m 148.6576,1.04131 c 11.3784,-1.70227 35.7794,9.92976 17.5773,18.57699 -1.9737,11.05713 -21.2155,15.91433 -8.3626,1.49037 16.2549,-18.61724 -30.6577,-9.26497 -11.8662,-19.75607 z m -343.7993,28.0321 c 12.1107,4.32466 -12.7502,13.02588 -2.1519,23.74696 2.1803,19.26697 -13.356,-8.93823 -12.8477,-13.307 3.2996,-5.27163 8.5969,-9.82262 14.9996,-10.43996 z m 148.9491,30.11471 c 35.9304,0.93814 73.2828,12.91211 98.2165,39.81974 5.4079,-4.70577 15.6319,-35.82931 18.664,-15.65442 -7.2405,18.51848 -20.3255,37.75481 -38.5798,45.93461 -8.6113,-11.05395 26.2266,-18.77866 5.595,-28.17504 -27.9893,-27.18889 -69.7858,-33.31473 -107.2051,-29.50195 -8.4103,3.34588 -36.0611,8.49378 -20.1308,-5.99607 13.8788,-4.87986 28.7667,-6.6864 43.4402,-6.42687 z"
       id="path3218"
       inkscape:connector-curvature="0"
       sodipodi:nodetypes="cccccccccccccccccccccccccccccccccccccccccccccccccccccccccccccccccccccccccccccccccc" />
    <path
       style="color:#000000;fill:#000000;fill-opacity:1;fill-rule:nonzero;stroke:#000000;stroke-width:6;stroke-linecap:butt;stroke-linejoin:miter;stroke-miterlimit:4;stroke-opacity:1;stroke-dasharray:none;stroke-dashoffset:0;marker:none;visibility:visible;display:inline;overflow:visible;enable-background:accumulate"
       d="m 1668.6322,729.13456 c -12.3163,-5.85345 -26.5016,4.6881 -27.9805,17.41137 -2.0874,11.84483 3.0421,25.10067 12.6675,32.25472 12.4757,5.7831 25.3029,-2.56284 37.0329,-6.4596 4.9095,3.54468 -8.5562,11.55609 -13.7805,12.70367 -13.9895,5.84168 -31.8607,-0.80627 -37.6669,-15.06276 -7.56,-14.4435 -5.7447,-36.28301 9.8245,-44.63306 4.7104,-4.40765 28.9621,-4.2646 19.903,3.78566 l 0,0 z"
       id="path2987"
       inkscape:connector-curvature="0" />
    <path
       style="color:#000000;fill:#000000;fill-opacity:1;fill-rule:nonzero;stroke:#000000;stroke-width:6;stroke-linecap:butt;stroke-linejoin:miter;stroke-miterlimit:4;stroke-opacity:1;stroke-dasharray:none;stroke-dashoffset:0;marker:none;visibility:visible;display:inline;overflow:visible;enable-background:accumulate"
       d="m 1692.0022,759.6839 c 13.9244,51.11903 48.9855,96.65225 99.1399,116.15224 45.8179,22.99199 105.2158,29.24546 148.178,-3.46862 43.3537,-24.90693 59.0805,-75.87649 66.3086,-121.89956 5.6358,44.73669 -19.2279,94.01208 -55.228,121.08429 -41.1571,33.08666 -99.3938,38.03429 -146.6341,15.6049 -44.0132,-15.18986 -84.2989,-45.06602 -102.3021,-89.19031 -3.4592,-10.08281 -21.8239,-29.8301 -9.4623,-38.28294 z"
       id="path2989"
       inkscape:connector-curvature="0" />
    <path
       style="color:#000000;fill:#000000;fill-opacity:1;fill-rule:nonzero;stroke:#000000;stroke-width:6;stroke-linecap:butt;stroke-linejoin:miter;stroke-miterlimit:4;stroke-opacity:1;stroke-dasharray:none;stroke-dashoffset:0;marker:none;visibility:visible;display:inline;overflow:visible;enable-background:accumulate"
       d="m 1992.0893,747.9042 c 18.9335,12.46001 48.8961,0.71302 53.9118,-21.35161 1.8092,-19.62595 -20.0113,-35.60507 -38.4456,-30.41585 -7.8205,2.79366 -8.6904,-6.00941 -0.2508,-5.44385 11.8048,-4.1391 24.0992,0.20413 32.9512,8.3145 14.5307,11.85474 14.9279,36.57745 -0.059,48.28882 -10.8181,9.66933 -26.3633,14.94562 -40.5235,10.0232 -3.1479,0.0842 -14.4109,-8.67146 -7.5845,-9.41521 z"
       id="path2991"
       inkscape:connector-curvature="0" />
    <path
       style="color:#000000;fill:#000000;fill-opacity:1;fill-rule:nonzero;stroke:#000000;stroke-width:6;stroke-linecap:butt;stroke-linejoin:miter;stroke-miterlimit:4;stroke-opacity:1;stroke-dasharray:none;stroke-dashoffset:0;marker:none;visibility:visible;display:inline;overflow:visible;enable-background:accumulate"
       d="m 2006.0848,698.13721 c 1.951,-20.21319 -1.1823,-40.81981 -1.0672,-60.99366 1.7312,-13.69893 -14.1175,-35.13448 -4.3296,-43.78865 6.914,19.49446 10.9464,41.28363 10.7326,62.48649 -2.6643,8.27559 8.1556,51.24964 -5.3358,42.29582 z"
       id="path2993"
       inkscape:connector-curvature="0" />
    <path
       style="color:#000000;fill:#000000;fill-opacity:1;fill-rule:nonzero;stroke:#000000;stroke-width:6;stroke-linecap:butt;stroke-linejoin:miter;stroke-miterlimit:4;stroke-opacity:1;stroke-dasharray:none;stroke-dashoffset:0;marker:none;visibility:visible;display:inline;overflow:visible;enable-background:accumulate"
       d="m 1665.4012,710.3739 c -3.394,-21.8448 -6.6215,-43.62221 -10.977,-65.22768 -0.1544,-14.10359 -11.8328,-42.139 4.35,-46.95089 -6.522,22.93088 2.8376,46.12886 5.8262,69.62361 -1.6304,13.70274 12.4393,36.95495 2.0061,44.67869 l -1.2053,-2.12373 0,0 z"
       id="path2995"
       inkscape:connector-curvature="0" />
    <path
       style="color:#000000;fill:#000000;fill-opacity:1;fill-rule:nonzero;stroke:#000000;stroke-width:6;stroke-linecap:butt;stroke-linejoin:miter;stroke-miterlimit:4;stroke-opacity:1;stroke-dasharray:none;stroke-dashoffset:0;marker:none;visibility:visible;display:inline;overflow:visible;enable-background:accumulate"
       d="m 1728.2599,617.20449 c 12.7592,-14.96207 37.7236,-19.35079 50.8243,-2.18624 10.1086,18.0813 37.9553,0.5777 45.3944,10.43827 -21.3239,10.82223 -44.1331,1.98128 -59.5448,-14.19467 -11.79,-13.09085 -37.0063,20.38133 -36.6739,5.94264 z"
       id="path2997"
       inkscape:connector-curvature="0" />
    <path
       style="color:#000000;fill:#000000;fill-opacity:1;fill-rule:nonzero;stroke:#000000;stroke-width:6;stroke-linecap:butt;stroke-linejoin:miter;stroke-miterlimit:4;stroke-opacity:1;stroke-dasharray:none;stroke-dashoffset:0;marker:none;visibility:visible;display:inline;overflow:visible;enable-background:accumulate"
       d="m 1840.7783,602.78052 c 20.0906,9.00125 -1.9813,14.32493 -4.1064,0.69629 l 1.72,-1.21414 2.3864,0.51785 z"
       id="path2999"
       inkscape:connector-curvature="0" />
    <path
       style="color:#000000;fill:#000000;fill-opacity:1;fill-rule:nonzero;stroke:#000000;stroke-width:6;stroke-linecap:butt;stroke-linejoin:miter;stroke-miterlimit:4;stroke-opacity:1;stroke-dasharray:none;stroke-dashoffset:0;marker:none;visibility:visible;display:inline;overflow:visible;enable-background:accumulate"
       d="m 1855.2385,582.67711 c 8.8612,1.12037 33.7665,29.88242 16.6018,21.54961 -0.1803,-7.22113 -30.9855,-19.39034 -16.6018,-21.54961 z"
       id="path3001"
       inkscape:connector-curvature="0" />
    <path
       style="color:#000000;fill:#000000;fill-opacity:1;fill-rule:nonzero;stroke:#000000;stroke-width:6;stroke-linecap:butt;stroke-linejoin:miter;stroke-miterlimit:4;stroke-opacity:1;stroke-dasharray:none;stroke-dashoffset:0;marker:none;visibility:visible;display:inline;overflow:visible;enable-background:accumulate"
       d="m 1906.6015,589.97076 c 11.2489,18.76306 32.0912,38.19745 55.4991,29.47165 11.3536,8.50563 -23.5613,10.29623 -29.8837,3.78466 -7.5625,-2.80739 -41.7143,-33.57626 -25.6154,-33.25631 z"
       id="path3003"
       inkscape:connector-curvature="0" />
    <path
       style="color:#000000;fill:#000000;fill-opacity:1;fill-rule:nonzero;stroke:#000000;stroke-width:4.46828985;stroke-linecap:butt;stroke-linejoin:miter;stroke-miterlimit:4;stroke-opacity:1;stroke-dasharray:none;stroke-dashoffset:0;marker:none;visibility:visible;display:inline;overflow:visible;enable-background:accumulate"
       d="m 1753.2755,658.12729 c 2.5262,-8.16948 15.6745,-15.44453 28.1818,-12.22268 8.7882,1.24924 10.4165,8.8369 18.8943,9.96043 6.4426,1.79189 17.8894,-3.7607 20.757,1.74857 -3.4882,2.84666 -10.6073,3.01382 -15.8018,2.27801 -12.7849,-2.10021 -21.355,-10.09913 -34.327,-11.89507 -5.5774,1.34024 -7.4899,5.66294 -10.343,8.78039 -1.2839,2.19521 -6.8241,6.57289 -7.3613,1.35035 z"
       id="path3005"
       inkscape:connector-curvature="0" />
    <path
       style="color:#000000;fill:#000000;fill-opacity:1;fill-rule:nonzero;stroke:#000000;stroke-width:6;stroke-linecap:butt;stroke-linejoin:miter;stroke-miterlimit:4;stroke-opacity:1;stroke-dasharray:none;stroke-dashoffset:0;marker:none;visibility:visible;display:inline;overflow:visible;enable-background:accumulate"
       d="m 1755.064,662.78052 c 8.5395,11.21269 24.7248,18.5942 38.2537,12.16214 6.4687,-3.05692 10.8437,-9.0367 14.124,-15.16303 2.8339,-4.17439 13.7587,-7.3024 14.5166,-0.98349 -4.6214,2.83991 -9.9185,4.38828 -12.8037,9.6564 -8.8665,9.22158 -21.4881,17.58781 -34.8692,14.83878 -7.0319,-1.32421 -11.5065,-7.20779 -16.7673,-11.4096 -3.5542,-1.49401 -11.7046,-9.80924 -2.4541,-9.1012 z"
       id="path3007"
       inkscape:connector-curvature="0" />
    <path
       style="color:#000000;fill:#000000;fill-opacity:1;fill-rule:nonzero;stroke:#000000;stroke-width:4.33230734;stroke-linecap:butt;stroke-linejoin:miter;stroke-miterlimit:4;stroke-opacity:1;stroke-dasharray:none;stroke-dashoffset:0;marker:none;visibility:visible;display:inline;overflow:visible;enable-background:accumulate"
       d="m 1893.9742,654.80881 c 14.3197,-8.80706 34.9112,-23.08156 53.3588,-7.97889 12.8246,10.13887 -12.2987,-1.68954 -18.5875,-3.96697 -8.9195,-2.90886 -32.8705,21.45743 -34.7713,11.94586 z"
       id="path3009"
       inkscape:connector-curvature="0" />
    <path
       style="color:#000000;fill:#000000;fill-opacity:1;fill-rule:nonzero;stroke:#000000;stroke-width:5.41764164;stroke-linecap:butt;stroke-linejoin:miter;stroke-miterlimit:4;stroke-opacity:1;stroke-dasharray:none;stroke-dashoffset:0;marker:none;visibility:visible;display:inline;overflow:visible;enable-background:accumulate"
       d="m 1898.0148,659.08982 c 13.4872,19.29145 36.9409,9.46965 45.7689,-6.76391 17.1947,-14.72623 0.9052,13.01315 -8.7056,15.86911 -10.0195,16.17346 -43.6508,0.9478 -39.3018,-9.90077 l 2.2385,0.79557 0,0 z"
       id="path3011"
       inkscape:connector-curvature="0" />
    <path
       style="color:#000000;fill:#000000;fill-opacity:1;fill-rule:nonzero;stroke:#000000;stroke-width:6;stroke-linecap:butt;stroke-linejoin:miter;stroke-miterlimit:4;stroke-opacity:1;stroke-dasharray:none;stroke-dashoffset:0;marker:none;visibility:visible;display:inline;overflow:visible;enable-background:accumulate"
       d="m 1857.8035,707.9042 c 8.4765,1.51653 18.237,4.43364 22.4363,12.67731 2.7096,5.97082 -0.5802,12.05491 -3.3758,17.24734 -1.056,4.7725 -4.5814,8.16489 -8.1742,11.18793 -4.4304,3.66171 -9.4705,7.00333 -15.1178,8.30367 -5.181,-1.78193 0.1921,-6.78984 3.5474,-6.95033 7.7744,-5.08812 14.651,-12.41774 17.5229,-21.40772 2.1748,-4.76595 -0.6872,-10.82728 -5.9964,-11.6333 -5.3861,-0.67544 -12.9926,-2.19764 -15.0479,-7.62104 0.8591,-1.3836 2.7519,-1.55454 4.2055,-1.80386 z"
       id="path3013"
       inkscape:connector-curvature="0" />
    <path
       style="color:#000000;fill:#000000;fill-opacity:1;fill-rule:nonzero;stroke:#000000;stroke-width:6;stroke-linecap:butt;stroke-linejoin:miter;stroke-miterlimit:4;stroke-opacity:1;stroke-dasharray:none;stroke-dashoffset:0;marker:none;visibility:visible;display:inline;overflow:visible;enable-background:accumulate"
       d="m 1767.3217,774.64573 c 37.9863,-14.31432 81.6998,-6.8561 116.8438,11.75437 9.0532,6.19264 27.2142,17.2579 24.7288,27.34667 -13.0434,-8.3659 -22.7558,-23.35138 -38.9822,-28.34666 -24.5236,-10.10386 -51.878,-14.04729 -78.2564,-11.63227 -5.1105,-1.39023 -32.468,13.91077 -24.334,0.87789 z"
       id="path3015"
       inkscape:connector-curvature="0" />
    <path
       style="color:#000000;fill:#000000;fill-opacity:1;fill-rule:nonzero;stroke:#000000;stroke-width:4.7690711;stroke-linecap:butt;stroke-linejoin:miter;stroke-miterlimit:4;stroke-opacity:1;stroke-dasharray:none;stroke-dashoffset:0;marker:none;visibility:visible;display:inline;overflow:visible;enable-background:accumulate"
       d="m 1890.4314,829.50353 c 13.1808,-10.07543 25.5841,-22.44426 30.6305,-38.22161 -1.7355,-6.5418 9.4344,-12.61933 5.9786,-2.46801 -5.1226,17.06926 -17.1474,31.76815 -31.7726,42.45755 -0.8297,3.48578 -8.139,1.59865 -4.8365,-1.76793 z"
       id="path3017"
       inkscape:connector-curvature="0" />
    <path
       style="color:#000000;fill:#000000;fill-opacity:1;fill-rule:nonzero;stroke:#000000;stroke-width:6;stroke-linecap:butt;stroke-linejoin:miter;stroke-miterlimit:4;stroke-opacity:1;stroke-dasharray:none;stroke-dashoffset:0;marker:none;visibility:visible;display:inline;overflow:visible;enable-background:accumulate"
       d="m 1637.7175,602.01879 c 5.6734,5.17602 40.1402,13.28783 23.5981,16.71112 -4.6158,-2.60367 -38.1839,-12.13167 -23.5981,-16.71112 z"
       id="path3019"
       inkscape:connector-curvature="0" />
    <path
       style="color:#000000;fill:#000000;fill-opacity:1;fill-rule:nonzero;stroke:#000000;stroke-width:6;stroke-linecap:butt;stroke-linejoin:miter;stroke-miterlimit:4;stroke-opacity:1;stroke-dasharray:none;stroke-dashoffset:0;marker:none;visibility:visible;display:inline;overflow:visible;enable-background:accumulate"
       d="m 1643.6354,582.78052 c 9.9972,3.13071 28.0402,23.09115 7.6717,12.07482 -2.6986,-2.07728 -21.0008,-12.01825 -7.6717,-12.07482 z"
       id="path3021"
       inkscape:connector-curvature="0" />
    <path
       style="color:#000000;fill:#000000;fill-opacity:1;fill-rule:nonzero;stroke:#000000;stroke-width:6;stroke-linecap:butt;stroke-linejoin:miter;stroke-miterlimit:4;stroke-opacity:1;stroke-dasharray:none;stroke-dashoffset:0;marker:none;visibility:visible;display:inline;overflow:visible;enable-background:accumulate"
       d="m 1649.594,571.87608 c 5.3819,6.85279 34.2696,18.52077 22.7705,23.75038 -3.8429,-4.83939 -37.9321,-21.81875 -22.7705,-23.75038 z"
       id="path3023"
       inkscape:connector-curvature="0" />
    <path
       style="color:#000000;fill:#000000;fill-opacity:1;fill-rule:nonzero;stroke:#000000;stroke-width:6;stroke-linecap:butt;stroke-linejoin:miter;stroke-miterlimit:4;stroke-opacity:1;stroke-dasharray:none;stroke-dashoffset:0;marker:none;visibility:visible;display:inline;overflow:visible;enable-background:accumulate"
       d="m 1663.8797,563.30465 c 5.9881,5.27757 36.4071,24.30292 14.5124,17.92278 -3.4308,-2.879 -29.2547,-17.37261 -14.5124,-17.92278 z"
       id="path3025"
       inkscape:connector-curvature="0" />
    <path
       style="color:#000000;fill:#000000;fill-opacity:1;fill-rule:nonzero;stroke:#000000;stroke-width:6;stroke-linecap:butt;stroke-linejoin:miter;stroke-miterlimit:4;stroke-opacity:1;stroke-dasharray:none;stroke-dashoffset:0;marker:none;visibility:visible;display:inline;overflow:visible;enable-background:accumulate"
       d="m 1672.3006,543.47927 c 4.0128,7.79465 31.3162,22.18471 19.1392,26.03669 -3.2626,-5.21301 -34.2589,-25.45512 -19.1392,-26.03669 z"
       id="path3027"
       inkscape:connector-curvature="0" />
    <path
       style="color:#000000;fill:#000000;fill-opacity:1;fill-rule:nonzero;stroke:#000000;stroke-width:6;stroke-linecap:butt;stroke-linejoin:miter;stroke-miterlimit:4;stroke-opacity:1;stroke-dasharray:none;stroke-dashoffset:0;marker:none;visibility:visible;display:inline;overflow:visible;enable-background:accumulate"
       d="m 1686.5863,543.47927 c 23.4981,22.17461 -18.9199,0.59621 0,0 z"
       id="path3029"
       inkscape:connector-curvature="0" />
    <path
       style="color:#000000;fill:#000000;fill-opacity:1;fill-rule:nonzero;stroke:#000000;stroke-width:6;stroke-linecap:butt;stroke-linejoin:miter;stroke-miterlimit:4;stroke-opacity:1;stroke-dasharray:none;stroke-dashoffset:0;marker:none;visibility:visible;display:inline;overflow:visible;enable-background:accumulate"
       d="m 1683.8797,531.87608 c 13.004,5.44261 10.091,19.68276 -1.3751,6.28772 -4.6374,-1.37619 -4.4304,-9.46681 1.3751,-6.28772 z"
       id="path3031"
       inkscape:connector-curvature="0" />
    <path
       style="color:#000000;fill:#000000;fill-opacity:1;fill-rule:nonzero;stroke:#000000;stroke-width:6;stroke-linecap:butt;stroke-linejoin:miter;stroke-miterlimit:4;stroke-opacity:1;stroke-dasharray:none;stroke-dashoffset:0;marker:none;visibility:visible;display:inline;overflow:visible;enable-background:accumulate"
       d="m 1692.3006,526.33641 c 10.2359,5.48054 17.5245,25.31934 1.6854,10.30633 -3.2811,-1.8626 -11.9802,-13.65261 -1.6854,-10.30633 z"
       id="path3033"
       inkscape:connector-curvature="0" />
    <path
       style="color:#000000;fill:#000000;fill-opacity:1;fill-rule:nonzero;stroke:#000000;stroke-width:6;stroke-linecap:butt;stroke-linejoin:miter;stroke-miterlimit:4;stroke-opacity:1;stroke-dasharray:none;stroke-dashoffset:0;marker:none;visibility:visible;display:inline;overflow:visible;enable-background:accumulate"
       d="m 1703.9037,518.29795 c 20.2763,24.88946 -18.6236,-1.4042 0,0 z"
       id="path3035"
       inkscape:connector-curvature="0" />
    <path
       style="color:#000000;fill:#000000;fill-opacity:1;fill-rule:nonzero;stroke:#000000;stroke-width:6;stroke-linecap:butt;stroke-linejoin:miter;stroke-miterlimit:4;stroke-opacity:1;stroke-dasharray:none;stroke-dashoffset:0;marker:none;visibility:visible;display:inline;overflow:visible;enable-background:accumulate"
       d="m 1715.1729,509.97076 c 15.0993,22.25934 -15.8708,-1.17644 0,0 z"
       id="path3037"
       inkscape:connector-curvature="0" />
    <path
       style="color:#000000;fill:#000000;fill-opacity:1;fill-rule:nonzero;stroke:#000000;stroke-width:6;stroke-linecap:butt;stroke-linejoin:miter;stroke-miterlimit:4;stroke-opacity:1;stroke-dasharray:none;stroke-dashoffset:0;marker:none;visibility:visible;display:inline;overflow:visible;enable-background:accumulate"
       d="m 1723.7443,498.54219 c 5.4918,4.79976 17.154,28.34206 3.0359,14.99459 -2.0276,-2.50597 -15.5061,-20.45693 -3.0359,-14.99459 z"
       id="path3039"
       inkscape:connector-curvature="0" />
    <path
       style="color:#000000;fill:#000000;fill-opacity:1;fill-rule:nonzero;stroke:#000000;stroke-width:6;stroke-linecap:butt;stroke-linejoin:miter;stroke-miterlimit:4;stroke-opacity:1;stroke-dasharray:none;stroke-dashoffset:0;marker:none;visibility:visible;display:inline;overflow:visible;enable-background:accumulate"
       d="m 1740.9906,496.19413 c 3.6633,6.49872 24.2031,36.41652 8.6966,26.44537 -0.8135,-5.24576 -23.1786,-31.02208 -8.6966,-26.44537 z"
       id="path3041"
       inkscape:connector-curvature="0" />
    <path
       style="color:#000000;fill:#000000;fill-opacity:1;fill-rule:nonzero;stroke:#000000;stroke-width:6;stroke-linecap:butt;stroke-linejoin:miter;stroke-miterlimit:4;stroke-opacity:1;stroke-dasharray:none;stroke-dashoffset:0;marker:none;visibility:visible;display:inline;overflow:visible;enable-background:accumulate"
       d="m 1757.9371,507.91476 c 2.4549,7.57385 20.2034,31.92462 3.6831,20.04159 -1.7551,-3.19654 -16.5477,-27.40909 -3.6831,-20.04159 z"
       id="path3043"
       inkscape:connector-curvature="0" />
    <path
       style="color:#000000;fill:#000000;fill-opacity:1;fill-rule:nonzero;stroke:#000000;stroke-width:6;stroke-linecap:butt;stroke-linejoin:miter;stroke-miterlimit:4;stroke-opacity:1;stroke-dasharray:none;stroke-dashoffset:0;marker:none;visibility:visible;display:inline;overflow:visible;enable-background:accumulate"
       d="m 1769.3657,499.34333 c 6.944,7.79068 11.8621,33.55111 0.2011,13.94881 -1.3823,-3.12208 -11.5407,-21.09278 -0.2011,-13.94881 z"
       id="path3045"
       inkscape:connector-curvature="0" />
    <path
       style="color:#000000;fill:#000000;fill-opacity:1;fill-rule:nonzero;stroke:#000000;stroke-width:6;stroke-linecap:butt;stroke-linejoin:miter;stroke-miterlimit:4;stroke-opacity:1;stroke-dasharray:none;stroke-dashoffset:0;marker:none;visibility:visible;display:inline;overflow:visible;enable-background:accumulate"
       d="m 1780.9906,499.05127 c 16.1576,26.01559 -18.3745,-4.24832 0,0 z"
       id="path3047"
       inkscape:connector-curvature="0" />
    <path
       style="color:#000000;fill:#000000;fill-opacity:1;fill-rule:nonzero;stroke:#000000;stroke-width:6;stroke-linecap:butt;stroke-linejoin:miter;stroke-miterlimit:4;stroke-opacity:1;stroke-dasharray:none;stroke-dashoffset:0;marker:none;visibility:visible;display:inline;overflow:visible;enable-background:accumulate"
       d="m 1792.4192,487.6227 c 16.1574,26.01563 -18.3744,-4.24841 0,0 z"
       id="path3049"
       inkscape:connector-curvature="0" />
    <path
       style="color:#000000;fill:#000000;fill-opacity:1;fill-rule:nonzero;stroke:#000000;stroke-width:6;stroke-linecap:butt;stroke-linejoin:miter;stroke-miterlimit:4;stroke-opacity:1;stroke-dasharray:none;stroke-dashoffset:0;marker:none;visibility:visible;display:inline;overflow:visible;enable-background:accumulate"
       d="m 1806.7049,484.76556 c 8.1274,6.68397 9.7587,23.87099 -1.3292,9.05983 -3.4702,-2.48012 -6.8152,-14.85545 1.3292,-9.05983 z"
       id="path3051"
       inkscape:connector-curvature="0" />
    <path
       style="color:#000000;fill:#000000;fill-opacity:1;fill-rule:nonzero;stroke:#000000;stroke-width:6;stroke-linecap:butt;stroke-linejoin:miter;stroke-miterlimit:4;stroke-opacity:1;stroke-dasharray:none;stroke-dashoffset:0;marker:none;visibility:visible;display:inline;overflow:visible;enable-background:accumulate"
       d="m 1823.8477,479.05127 c 8.8736,7.73488 9.8845,28.20069 -1.04,9.95216 -3.0653,-2.53484 -7.7539,-15.84944 1.04,-9.95216 z"
       id="path3053"
       inkscape:connector-curvature="0" />
    <path
       style="color:#000000;fill:#000000;fill-opacity:1;fill-rule:nonzero;stroke:#000000;stroke-width:6;stroke-linecap:butt;stroke-linejoin:miter;stroke-miterlimit:4;stroke-opacity:1;stroke-dasharray:none;stroke-dashoffset:0;marker:none;visibility:visible;display:inline;overflow:visible;enable-background:accumulate"
       d="m 1849.4148,488.3788 c 1.0532,12.37864 20.872,29.12078 13.1798,37.9679 -3.3774,-5.39696 -28.0636,-42.94356 -13.1798,-37.9679 z"
       id="path3055"
       inkscape:connector-curvature="0" />
    <path
       style="color:#000000;fill:#000000;fill-opacity:1;fill-rule:nonzero;stroke:#000000;stroke-width:6;stroke-linecap:butt;stroke-linejoin:miter;stroke-miterlimit:4;stroke-opacity:1;stroke-dasharray:none;stroke-dashoffset:0;marker:none;visibility:visible;display:inline;overflow:visible;enable-background:accumulate"
       d="m 1863.6514,496.48619 c 0.4253,11.49819 23.1597,29.43503 13.6959,34.68798 -4.2816,-4.11485 -28.3382,-39.30353 -13.6959,-34.68798 z"
       id="path3057"
       inkscape:connector-curvature="0" />
    <path
       style="color:#000000;fill:#000000;fill-opacity:1;fill-rule:nonzero;stroke:#000000;stroke-width:6;stroke-linecap:butt;stroke-linejoin:miter;stroke-miterlimit:4;stroke-opacity:1;stroke-dasharray:none;stroke-dashoffset:0;marker:none;visibility:visible;display:inline;overflow:visible;enable-background:accumulate"
       d="m 1886.5086,499.34333 c 5.5612,6.51694 15.5332,36.42517 2.5284,18.13824 -1.4144,-3.61711 -15.1208,-24.91749 -2.5284,-18.13824 z"
       id="path3059"
       inkscape:connector-curvature="0" />
    <path
       style="color:#000000;fill:#000000;fill-opacity:1;fill-rule:nonzero;stroke:#000000;stroke-width:6;stroke-linecap:butt;stroke-linejoin:miter;stroke-miterlimit:4;stroke-opacity:1;stroke-dasharray:none;stroke-dashoffset:0;marker:none;visibility:visible;display:inline;overflow:visible;enable-background:accumulate"
       d="m 1892.4192,501.90842 c 4.5407,7.31621 22.0949,39.30365 4.7722,21.35393 -0.7505,-3.91497 -18.2513,-27.32905 -4.7722,-21.35393 z"
       id="path3061"
       inkscape:connector-curvature="0" />
    <path
       style="color:#000000;fill:#000000;fill-opacity:1;fill-rule:nonzero;stroke:#000000;stroke-width:6;stroke-linecap:butt;stroke-linejoin:miter;stroke-miterlimit:4;stroke-opacity:1;stroke-dasharray:none;stroke-dashoffset:0;marker:none;visibility:visible;display:inline;overflow:visible;enable-background:accumulate"
       d="m 1914.8593,508.25532 c 7.5586,9.71254 -2.4536,28.4274 -3.6889,8.41564 -2.068,-3.39998 -3.1131,-15.92975 3.6889,-8.41564 z"
       id="path3063"
       inkscape:connector-curvature="0" />
    <path
       style="color:#000000;fill:#000000;fill-opacity:1;fill-rule:nonzero;stroke:#000000;stroke-width:6;stroke-linecap:butt;stroke-linejoin:miter;stroke-miterlimit:4;stroke-opacity:1;stroke-dasharray:none;stroke-dashoffset:0;marker:none;visibility:visible;display:inline;overflow:visible;enable-background:accumulate"
       d="m 1923.1768,506.17048 c -0.2281,6.93442 8.9105,34.96533 -2.2162,26.57119 2.1145,-4.70091 -10.238,-36.62739 2.2162,-26.57119 z"
       id="path3065"
       inkscape:connector-curvature="0" />
    <path
       style="color:#000000;fill:#000000;fill-opacity:1;fill-rule:nonzero;stroke:#000000;stroke-width:6;stroke-linecap:butt;stroke-linejoin:miter;stroke-miterlimit:4;stroke-opacity:1;stroke-dasharray:none;stroke-dashoffset:0;marker:none;visibility:visible;display:inline;overflow:visible;enable-background:accumulate"
       d="m 1919.6885,528.63306 c 17.2895,-12.86472 -1.3454,17.00217 0,0 z"
       id="path3067"
       inkscape:connector-curvature="0" />
    <path
       style="color:#000000;fill:#000000;fill-opacity:1;fill-rule:nonzero;stroke:#000000;stroke-width:6;stroke-linecap:butt;stroke-linejoin:miter;stroke-miterlimit:4;stroke-opacity:1;stroke-dasharray:none;stroke-dashoffset:0;marker:none;visibility:visible;display:inline;overflow:visible;enable-background:accumulate"
       d="m 1931.8943,531.47498 c 18.0886,-7.61056 -3.6296,14.43084 0,0 z"
       id="path3069"
       inkscape:connector-curvature="0" />
    <path
       style="color:#000000;fill:#000000;fill-opacity:1;fill-rule:nonzero;stroke:#000000;stroke-width:6;stroke-linecap:butt;stroke-linejoin:miter;stroke-miterlimit:4;stroke-opacity:1;stroke-dasharray:none;stroke-dashoffset:0;marker:none;visibility:visible;display:inline;overflow:visible;enable-background:accumulate"
       d="m 1937.6086,542.90356 c 7.7272,-10.16703 27.4142,-13.55574 16.9051,4.25159 -13.6814,24.90424 20.8201,-23.57353 15.6141,5.87335 -8.0674,22.27825 -0.8685,-4.1494 10.6616,-0.99506 2.927,10.45192 -17.1285,35.50043 -3.7836,17.73129 3.4503,-7.83607 22.6291,-13.59532 10.6109,-1.55025 -4.8972,8.55609 -26.4025,18.96561 -17.6543,0.66753 -0.1392,-13.0179 15.6578,-18.39291 2.8618,-6.13011 -17.0112,17.31455 -7.9748,-18.10061 -7.1099,-13.73492 -10.4843,17.27012 -26.8952,9.30387 -14.8225,-8.49633 12.1347,-10.60497 -19.1085,18.83655 -13.2832,2.38291 z"
       id="path3071"
       inkscape:connector-curvature="0" />
    <path
       style="color:#000000;fill:#000000;fill-opacity:1;fill-rule:nonzero;stroke:#000000;stroke-width:6;stroke-linecap:butt;stroke-linejoin:miter;stroke-miterlimit:4;stroke-opacity:1;stroke-dasharray:none;stroke-dashoffset:0;marker:none;visibility:visible;display:inline;overflow:visible;enable-background:accumulate"
       d="m 1989.0372,580.04641 c 16.4357,-8.76827 -2.7071,14.37146 0,0 z"
       id="path3073"
       inkscape:connector-curvature="0" />
    <path
       style="color:#000000;fill:#000000;fill-opacity:1;fill-rule:nonzero;stroke:#000000;stroke-width:6;stroke-linecap:butt;stroke-linejoin:miter;stroke-miterlimit:4;stroke-opacity:1;stroke-dasharray:none;stroke-dashoffset:0;marker:none;visibility:visible;display:inline;overflow:visible;enable-background:accumulate"
       d="m 1986.9811,591.56791 c 20.251,-8.00001 -6.283,16.35432 0,0 z"
       id="path3075"
       inkscape:connector-curvature="0" />
    <path
       style="color:#000000;fill:#000000;fill-opacity:1;fill-rule:nonzero;stroke:#000000;stroke-width:6;stroke-linecap:butt;stroke-linejoin:miter;stroke-miterlimit:4;stroke-opacity:1;stroke-dasharray:none;stroke-dashoffset:0;marker:none;visibility:visible;display:inline;overflow:visible;enable-background:accumulate"
       d="m 2001.4052,710.71894 c 6.3435,-3.68291 14.0056,-1.75762 20.0674,1.49946 2.8722,0.49932 10.6608,5.119 7.9651,6.32361 -5.6632,-3.36039 -11.6096,-6.63311 -18.0274,-8.13471 -1.8752,-1.04226 -11.3049,3.60256 -10.0051,0.31164 z"
       id="path3157"
       inkscape:connector-curvature="0" />
    <path
       style="color:#000000;fill:#000000;fill-opacity:1;fill-rule:nonzero;stroke:#000000;stroke-width:6;stroke-linecap:butt;stroke-linejoin:miter;stroke-miterlimit:4;stroke-opacity:1;stroke-dasharray:none;stroke-dashoffset:0;marker:none;visibility:visible;display:inline;overflow:visible;enable-background:accumulate"
       d="m 2024.5532,715.50454 c -1.3115,5.43541 -2.7614,15.83 -7.9366,16.71347 1.8992,-4.35722 5.3923,-8.36647 5.2316,-13.74879 0.3093,-1.23867 0.8876,-3.86884 2.705,-2.96468 z"
       id="path3159"
       inkscape:connector-curvature="0" />
    <path
       style="color:#000000;fill:#000000;fill-opacity:1;fill-rule:nonzero;stroke:#000000;stroke-width:6;stroke-linecap:butt;stroke-linejoin:miter;stroke-miterlimit:4;stroke-opacity:1;stroke-dasharray:none;stroke-dashoffset:0;marker:none;visibility:visible;display:inline;overflow:visible;enable-background:accumulate"
       d="m 1664.3113,739.19361 c -3.1877,0.22539 -6.5665,1.2199 -8.6767,3.76822 -0.9313,1.01953 -1.761,2.13084 -2.7482,3.09926 -0.129,1.05762 -1.6278,3.2553 -2.3616,1.5019 -0.054,-2.20784 1.9419,-3.5432 3.1539,-5.13092 1.6096,-2.02182 3.7732,-3.62683 6.2968,-4.28679 1.3819,-0.3344 2.7933,-0.77032 4.204,-0.79331 1.2858,0.0621 1.5338,1.7526 0.1318,1.84164 z"
       id="path3161"
       inkscape:connector-curvature="0" />
    <path
       style="color:#000000;fill:#000000;fill-opacity:1;fill-rule:nonzero;stroke:#000000;stroke-width:6;stroke-linecap:butt;stroke-linejoin:miter;stroke-miterlimit:4;stroke-opacity:1;stroke-dasharray:none;stroke-dashoffset:0;marker:none;visibility:visible;display:inline;overflow:visible;enable-background:accumulate"
       d="m 1657.6726,743.72612 c -0.755,5.43819 -0.8884,11.19729 1.2331,16.36215 0.2196,1.22421 2.0038,2.21321 1.3023,3.45084 -1.378,0.90757 -2.0195,-0.93638 -2.5537,-1.87461 -1.6118,-3.18554 -2.1508,-6.8067 -2.2899,-10.33832 -0.015,-2.75937 0.065,-5.5605 0.6341,-8.26143 0.4539,-0.86217 1.9482,-0.29576 1.6741,0.66137 z"
       id="path3163"
       inkscape:connector-curvature="0" />
    <path
       sodipodi:type="arc"
       style="color:#000000;fill:#000000;fill-opacity:1;fill-rule:nonzero;stroke:#000000;stroke-width:6;stroke-linecap:butt;stroke-linejoin:miter;stroke-miterlimit:4;stroke-opacity:1;stroke-dasharray:none;stroke-dashoffset:0;marker:none;visibility:visible;display:inline;overflow:visible;enable-background:accumulate"
       id="path3200"
       sodipodi:cx="1566.2981"
       sodipodi:cy="682.29523"
       sodipodi:rx="4.0966821"
       sodipodi:ry="4.0966821"
       d="m 1570.3948,682.29523 c 0,2.26253 -1.8342,4.09668 -4.0967,4.09668 -2.2625,0 -4.0967,-1.83415 -4.0967,-4.09668 0,-2.26254 1.8342,-4.09669 4.0967,-4.09669 2.2625,0 4.0967,1.83415 4.0967,4.09669 z"
       transform="translate(211.20671,-18.207475)" />
    <path
       transform="translate(350.4939,-23.669718)"
       d="m 1570.3948,682.29523 c 0,2.26253 -1.8342,4.09668 -4.0967,4.09668 -2.2625,0 -4.0967,-1.83415 -4.0967,-4.09668 0,-2.26254 1.8342,-4.09669 4.0967,-4.09669 2.2625,0 4.0967,1.83415 4.0967,4.09669 z"
       sodipodi:ry="4.0966821"
       sodipodi:rx="4.0966821"
       sodipodi:cy="682.29523"
       sodipodi:cx="1566.2981"
       id="path3202"
       style="color:#000000;fill:#000000;fill-opacity:1;fill-rule:nonzero;stroke:#000000;stroke-width:6;stroke-linecap:butt;stroke-linejoin:miter;stroke-miterlimit:4;stroke-opacity:1;stroke-dasharray:none;stroke-dashoffset:0;marker:none;visibility:visible;display:inline;overflow:visible;enable-background:accumulate"
       sodipodi:type="arc" />
    <text
       xml:space="preserve"
       style="font-size:48px;font-style:normal;font-variant:normal;font-weight:normal;font-stretch:normal;text-align:start;line-height:125%;letter-spacing:0px;word-spacing:0px;writing-mode:lr-tb;text-anchor:start;fill:#000000;fill-opacity:1;stroke:none;font-family:Acme;-inkscape-font-specification:Acme"
       x="1232.9675"
       y="520.14789"
       id="text3204"
       sodipodi:linespacing="125%"><tspan
         sodipodi:role="line"
         id="tspan3230"
         x="1232.9675"
         y="520.14789">:g/manager/d</tspan></text>
    <path
       style="color:#000000;fill:#000000;fill-opacity:1;fill-rule:nonzero;stroke:#000000;stroke-width:6.23556995;stroke-linecap:butt;stroke-linejoin:miter;stroke-miterlimit:4;stroke-opacity:1;stroke-dasharray:none;stroke-dashoffset:0;marker:none;visibility:visible;display:inline;overflow:visible;enable-background:accumulate"
       id="path3208"
       d="m 1463.4735,462.53713 c 3.1655,-3.31067 6.5307,-5.36805 10.4758,-6.30283 4.1202,-0.67094 8.3167,-0.0758 12.3286,1.25753 3.1832,0.91309 6.0614,2.76195 8.5474,5.54292 0.9245,1.30475 1.5725,3.06599 1.6659,4.76517 0.9925,-3.1449 1.715,1.21242 1.3999,-1.85772 -0.027,-1.37113 0.2015,-3.11403 0.9865,-4.08149 0.9557,-1.80133 2.2476,-1.54231 3.7552,-1.51952 2.4723,0.39707 4.3556,2.36126 6.1816,4.45021 2.4948,2.9125 4.78,6.04257 6.4914,9.84148 1.1618,2.52028 2.2033,5.11582 2.7455,7.99385 0.1075,3.79473 1.8681,0.14832 1.2467,-0.55575 -0.1313,1.02593 -0.3829,2.03714 -0.3939,3.07779 0,0.21742 0.2416,0.29257 0.3569,0.44649 1.1878,1.58644 2.0917,3.54698 3.0172,5.40457 2.105,4.36197 3.3627,9.16047 4.0123,14.24117 0.3345,4.84364 -0.2772,9.38322 -2.1472,13.54926 -1.2204,2.50364 -2.6748,4.52918 -4.821,5.48146 -0.8515,0.65136 -2.1681,-0.0517 -2.9361,0.81312 -0.3023,0.34043 -0.4631,0.85557 -0.6946,1.28335 -0.093,3.27407 0.6501,6.56493 0.9305,9.84869 0.1061,4.63846 -0.4636,9.22151 -1.7012,13.54915 -1.2206,3.87555 -3.6396,6.28472 -6.3966,8.05518 -2.2382,1.2134 -4.7802,1.32905 -7.1309,0.65497 -1.5985,-0.62762 -2.8752,-1.77451 -4.5831,-1.6829 -2.0094,0.60147 -3.2812,2.98602 -4.8989,4.53757 -2.6778,2.89635 -6.021,3.73423 -9.343,4.35728 -3.7357,0.45861 -6.9845,-1.61648 -10.131,-4.02191 -2.6505,-2.31683 -4.6997,-5.56791 -6.4675,-9.03056 -0.7882,-1.2704 -1.2467,-4.30451 -2.7575,-4.52603 -0.3963,-0.0581 -0.7926,0.1147 -1.189,0.17209 -0.2915,0.29139 -0.6073,0.544 -0.8745,0.87417 -0.6863,0.84797 -1.1943,1.91544 -1.9401,2.70188 -0.2159,0.22785 -1.9097,1.60764 -2.0119,1.69186 -2.4232,1.953 -5.0665,2.77914 -7.8518,3.0953 -2.7827,0.17211 -5.6249,-0.32854 -8.2283,-1.66238 -2.5377,-1.55411 -4.8031,-3.66096 -6.9741,-5.97597 -1.6263,-1.50347 -2.6742,-3.82302 -4.3096,-5.28567 -2.2651,-1.06562 -4.1684,1.59239 -5.8893,3.23014 -2.6333,2.44582 -5.5716,4.2642 -8.5439,5.84645 -2.7842,1.22755 -5.5294,0.70931 -8.3416,0.12566 -2.581,-0.51763 -4.6939,-2.11352 -6.7434,-4.161 -1.4217,-1.65057 -2.8367,-3.32619 -4.57,-4.36226 -2.2101,-0.62 -3.6466,1.66958 -5.1931,3.39526 -2.755,3.21947 -5.9461,5.34909 -9.3798,6.94509 -3.8307,1.58446 -7.7752,1.75281 -11.7134,0.97358 -3.1896,-0.92708 -5.952,-3.22843 -8.7032,-5.44949 -1.5896,-1.43831 -3.0812,-3.14723 -4.8167,-4.27101 -2.2358,-0.6805 -3.5586,1.64174 -5.0306,3.45179 -2.3371,2.86567 -5.0142,5.19308 -7.6574,7.52067 -3.0479,2.69001 -6.1566,5.36801 -9.5322,7.26746 -2.8295,1.95913 -5.7554,2.51639 -8.8933,2.12539 -2.9537,-0.71761 -5.5333,-2.65535 -7.976,-4.87677 -1.5629,-1.35739 -2.8446,-3.16521 -4.5643,-4.16467 -2.3699,-0.48826 -4.709,1.06374 -6.8273,2.3228 -3.666,2.03171 -7.5397,3.23367 -11.4512,4.04579 -4.389,0.88795 -8.8388,0.65475 -13.2167,-0.19813 -3.1334,-0.37684 -5.667,-2.04226 -7.9836,-4.76283 -1.329,-2.17305 -1.7875,-3.83968 -3.9333,-4.64141 -2.8269,0.17999 -5.4933,1.93595 -8.1505,3.12726 -4.5541,2.27047 -9.3617,3.37186 -14.2065,3.56373 -4.9638,0.26576 -9.7372,-0.69155 -14.3825,-2.97786 -3.4346,-1.73112 -5.9497,-4.78804 -7.7465,-8.99 -0.9054,-2.49149 -1.2342,-5.21422 -1.3644,-7.94906 -0.7012,-3.55803 -3.5375,-1.71148 -5.3155,-0.90178 -2.8463,1.46873 -5.881,1.36165 -8.8624,0.89727 -3.4396,-0.81856 -5.8744,-2.89709 -8.1439,-6.32549 -2.3701,-4.18898 -2.6507,-8.96349 -2.5171,-14.01425 0.5929,-4.96303 2.3925,-9.29634 5.1134,-12.71598 2.1298,-2.47168 4.4656,-3.23156 7.2018,-3.09281 1.5878,0.062 3.1496,0.73329 4.7142,0.31357 0.2324,-0.69349 0.5813,-1.33685 0.6975,-2.08048 0.14,-0.89823 -0.8006,-2.80172 -1.0056,-3.62378 -0.324,-1.29877 -0.4341,-2.11189 -0.6631,-3.46136 -0.6339,-4.2979 -0.8435,-8.52576 0.2132,-12.70535 0.7899,-3.18634 2.5583,-5.84406 5.0118,-6.77605 1.7883,-0.55769 3.6156,0.11122 5.4038,-0.16863 1.8782,-1.30539 1.8334,-4.42847 2.4686,-6.85834 0.9902,-3.88147 2.799,-6.76711 5.3326,-9.00572 2.6141,-2.42208 5.6219,-3.30629 8.7603,-2.97086 1.7698,0.32711 3.4987,1.24708 4.9033,2.72526 1.2286,1.77901 2.5431,1.70097 3.7358,-0.11542 1.6498,-3.5287 3.854,-5.8904 6.5498,-7.89395 4.7065,-3.54967 9.9342,-4.60268 15.2511,-4.84029 4.3369,0.0323 8.4111,1.64236 11.9406,4.97813 1.8497,2.00906 3.3128,4.55317 4.792,7.02441 1.4625,2.49245 3.0479,-0.0935 4.3153,-1.34186 2.2194,-2.20143 4.7157,-2.28745 7.3341,-1.61214 3.3994,1.15959 5.6002,4.34324 7.5704,7.99422 1.3536,2.63582 2.121,5.6365 2.7549,8.68332 1.7225,3.48862 2.7132,-0.80305 3.1474,-2.35076 0.5638,-2.00924 0.4615,-1.6113 1.1625,-3.65327 1.9382,-5.28916 4.9856,-9.098 8.5456,-12.4137 3.7627,-3.03849 7.9828,-4.60841 12.3678,-4.20058 3.7098,0.69471 6.7581,3.3716 9.6142,6.4196 2.2282,2.16121 3.6894,5.39455 5.7325,7.78266 2.3991,2.2539 4.0096,-1.17451 5.3205,-3.48264 2.6298,-3.82444 6.1098,-5.63849 9.789,-6.89077 5.3301,-1.21605 10.5552,-0.0386 15.6614,2.02893 4.3028,1.70239 7.9111,5.1093 11.2484,8.99686 2.3789,2.5428 3.0367,5.36708 6.3931,3.49041 2.57,-2.77798 5.1045,-5.50306 8.021,-7.62855 4.0177,-2.6167 8.3367,-3.07939 12.7213,-2.54374 3.5099,0.7218 6.7494,2.48025 9.6282,5.21272 1.1206,1.11242 1.5305,2.96097 2.6949,3.9432 0.4845,-0.20483 1.0231,-0.25394 1.4533,-0.61447 0.4254,-0.35637 1.4179,-3.79607 1.6347,-4.47541 0.7357,-2.01296 2.0541,-3.52104 3.7156,-3.89509 2.7838,-0.32158 5.5099,0.97868 8.1092,2.16025 2.6827,1.23795 5.3761,2.50239 7.9143,4.20968 1.6496,1.08886 2.9243,2.52189 4.8392,2.08706 0.8796,-0.57626 0.4393,-0.20017 1.2881,-1.19364 1.2077,-1.58879 -0.4782,-3.86494 -1.6858,-2.27616 l 0,0 c -0.1517,0.34327 -0.046,0.18887 -0.3449,0.42843 0.066,0.0389 0.2646,0.0875 0.1964,0.1165 -0.114,0.0486 -0.71,-0.19823 -0.7575,-0.22864 -0.5608,-0.35941 -1.0531,-0.88705 -1.6032,-1.27475 -0.276,-0.19452 -0.5687,-0.34365 -0.853,-0.51547 -2.6396,-1.76778 -5.4311,-3.1005 -8.2206,-4.38095 -3.0258,-1.36884 -6.1836,-2.80231 -9.4205,-2.24919 -2.3971,0.84612 -4.3292,2.67641 -5.3861,5.76163 -0.2987,0.93819 -0.6307,1.83772 -0.9571,2.75753 -0.077,0.21787 -0.336,0.68486 -0.1553,0.69283 0.3571,0.0157 0.7127,-0.0722 1.069,-0.10834 1.4901,1.51901 -1.706,-3.12895 -2.1428,-3.55429 -3.2353,-3.04444 -6.8656,-5.01812 -10.8041,-5.78935 -4.8631,-0.55753 -9.6498,-0.0151 -14.0903,2.92752 -2.868,2.11555 -5.4686,4.66315 -7.9201,7.55862 -0.179,0.17043 -0.2829,0.52755 -0.5002,0.57392 -0.7867,0.1679 -2.4651,-3.20761 -3.2606,-3.60414 -3.6021,-4.1679 -7.4972,-7.82236 -12.1303,-9.64657 -5.532,-2.21811 -11.1931,-3.45315 -16.9552,-2.06435 -4.2016,1.45791 -8.1546,3.62098 -11.1035,8.0583 -0.098,0.17267 -1.1625,2.06322 -1.3823,2.41009 -0.1107,0.17483 -0.3012,0.27552 -0.3605,0.49026 -0.042,0.15107 0.3824,0.36653 0.2647,0.32989 -0.1418,-0.0442 -0.2581,-0.17978 -0.3872,-0.26968 -2.1409,-2.20101 -3.423,-5.86837 -5.7761,-7.83027 -3.2509,-3.45237 -6.7414,-6.39727 -10.9617,-7.11259 -4.9398,-0.37316 -9.6707,1.28274 -13.8955,4.77391 -3.9012,3.65696 -7.2379,7.89495 -9.3514,13.7054 -0.1164,0.34145 -1.8694,5.69074 -1.7052,5.75389 2.1195,0.81509 1.2419,-0.85366 1.891,0.72145 -0.7115,-3.41116 -1.5985,-6.7571 -3.1213,-9.69941 -2.3476,-4.32076 -5.0543,-7.96226 -9.0831,-9.26818 -3.2858,-0.76879 -6.4386,-0.55822 -9.2076,2.19966 -1.209,1.22294 -0.3902,0.34345 -1.3155,1.43925 -0.1132,0.13413 -0.436,0.22878 -0.3466,0.39179 0.1145,0.2087 0.4,-0.0564 0.5812,0.036 0.1486,0.0758 0.1956,0.37103 0.3469,0.43722 0.1276,0.0559 -0.1781,-0.26822 -0.2673,-0.40233 -1.6273,-2.70129 -3.2313,-5.48971 -5.2899,-7.64678 -3.9901,-3.67894 -8.5196,-5.56122 -13.399,-5.55399 -5.7013,0.26836 -11.3026,1.44447 -16.3456,5.24964 -2.9293,2.21588 -5.4136,4.80048 -7.2245,8.64684 -0.066,0.12233 -0.2632,0.24684 -0.1957,0.36699 0.076,0.13409 0.2498,-0.0576 0.3753,-0.047 0.03,0.002 0.4197,0.55067 0.2703,0.38357 -0.3028,-0.33855 -0.518,-0.80504 -0.8641,-1.08214 -1.8022,-1.83528 -3.9477,-3.02168 -6.2057,-3.38747 -3.6769,-0.30337 -7.2055,0.65472 -10.273,3.51286 -2.9286,2.68678 -5.1087,6.05738 -6.257,10.61578 -0.1638,0.64407 -1.4376,4.66136 -0.5976,4.74293 -1.0358,0.54512 -4.6235,-0.82505 -5.747,0.28083 -3.1485,1.47114 -5.511,4.53189 -6.5509,8.82368 -1.1392,4.75952 -1.0318,9.52963 -0.272,14.40976 0.3165,1.84031 0.656,3.60224 1.1856,5.35609 0.1023,0.33872 0.2159,0.67118 0.3216,1.00797 0.04,0.13041 0.033,0.47695 0.1187,0.39358 0.3285,-0.31968 0.5144,-0.83995 0.7716,-1.25993 0.1323,0.008 0.508,0.11998 0.3967,0.0246 -0.8363,-0.7161 -3.1625,-0.0779 -4.115,-0.57705 -3.3852,-0.1405 -6.3381,0.92838 -8.9434,3.9786 -3.1428,4.05815 -5.2486,9.07314 -5.8526,14.91912 -0.1417,5.87887 0.3213,11.4367 3.1222,16.24708 2.6974,4.01525 5.6194,6.45209 9.6665,7.37809 3.3352,0.49172 6.7272,0.58747 9.9112,-1.04968 0.441,-0.20223 2.1626,-0.57065 2.5024,-1.06892 0.055,-0.0799 -0.8226,-0.73074 -0.3597,-0.84868 0.1589,3.22671 0.5797,6.42602 1.6818,9.34448 2.1161,4.81542 5.0229,8.40331 8.9968,10.3909 4.9398,2.4034 10.0124,3.46129 15.2858,3.17213 5.0789,-0.22809 10.1198,-1.34304 14.8963,-3.72949 2.3078,-1.0376 4.5906,-2.37795 6.9796,-3.0057 0.4419,-0.50239 2.3591,3.47134 2.7565,3.89445 2.6723,3.10545 5.6372,5.06089 9.2219,5.52272 4.6166,0.87992 9.3042,1.14077 13.931,0.19257 4.1209,-0.86293 8.2021,-2.13318 12.0617,-4.28711 1.5836,-0.95135 3.2171,-1.86322 4.9314,-2.2843 1.5865,0.7799 2.6382,2.80458 4.1264,3.84973 2.7839,2.53041 5.747,4.67346 9.1197,5.42087 3.5215,0.38539 6.8607,-0.17761 10.0424,-2.36916 3.5011,-2.00344 6.753,-4.72233 9.9149,-7.54175 2.7512,-2.42442 5.5335,-4.85314 7.9639,-7.84111 0.7268,-0.89844 1.6884,-2.2444 2.3916,-2.89785 1.6853,0.94653 3.0185,2.8831 4.5828,4.10503 3.0266,2.44297 6.08,4.92338 9.6014,5.8789 4.3247,0.82099 8.6529,0.65057 12.8523,-1.12041 3.7006,-1.73714 7.1516,-4.04294 10.1265,-7.51114 0.8715,-0.97266 1.7686,-2.16122 2.7089,-2.90674 1.5871,0.82469 2.7538,2.6296 4.0768,3.98323 2.3653,2.35065 4.8472,4.15788 7.811,4.75954 3.2402,0.67236 6.4166,1.14895 9.6043,-0.3175 3.1465,-1.68867 6.2594,-3.60808 9.0453,-6.2123 1.0663,-1.01551 2.249,-2.04294 3.2318,-3.11279 1.6346,1.03444 2.3922,4.01504 4.0736,5.06385 2.3683,2.52169 4.8492,4.80763 7.6269,6.47099 2.954,1.45772 6.1313,2.09152 9.282,1.85558 3.1571,-0.37288 6.1644,-1.34701 8.9068,-3.56193 1.0063,-0.83109 4.1235,-3.19144 4.2944,-4.94117 -0.1087,-0.0653 -0.2271,-0.1069 -0.3259,-0.19572 -0.04,-0.0362 0.015,-0.23871 0.043,-0.18559 0.5731,1.09299 0.8623,2.46424 1.5175,3.49471 1.9859,3.85048 4.2751,7.4594 7.2573,10.00151 3.6208,2.74878 7.3775,4.99441 11.6594,4.41162 3.706,-0.70796 7.4217,-1.72254 10.4146,-4.93495 1.2847,-1.25066 2.3774,-2.99668 3.7576,-3.94811 1.0164,-0.77137 2.6929,1.94462 3.8414,1.63996 2.8904,0.73719 5.9242,0.65056 8.6613,-0.91876 3.2921,-2.18293 6.1484,-5.12283 7.5857,-9.79936 1.347,-4.81505 2.0065,-9.88737 1.8397,-15.04012 -0.2414,-2.79719 -0.5326,-5.59018 -1.0814,-8.31478 -0.1907,0.16989 -0.8605,0.39779 -0.6329,0.36 0.9478,-0.15733 1.9155,-0.13284 2.825,-0.60901 2.6623,-1.2899 4.587,-3.68036 6.0941,-6.87622 2.1188,-4.8575 2.8832,-10.10116 2.4442,-15.71558 -0.7207,-5.51569 -2.0845,-10.73656 -4.3787,-15.4687 -1.0483,-2.09857 -2.0989,-4.59488 -3.5912,-6.20767 -0.3167,-0.34225 -0.6364,-1.09776 -1.0175,-0.9046 -0.8196,0.4154 -1.281,1.59618 -1.9215,2.39426 2.0202,2.27253 3.4067,-0.18901 2.6306,-2.67257 -0.6131,-3.1799 -1.7214,-6.0778 -3.0183,-8.86203 -1.864,-4.07382 -4.2823,-7.49335 -6.9843,-10.6153 -2.2646,-2.57428 -4.6548,-4.85474 -7.7187,-5.21813 -2.1447,-0.023 -4.2025,0.0846 -5.5817,2.60796 -1.1295,1.86535 -1.7308,4.22853 -1.5577,6.65227 0.3302,2.89686 2.0324,6.07174 3.3613,1.73419 0.068,-2.88215 -1.0584,-5.51767 -2.5211,-7.56527 -2.7869,-3.04637 -5.9562,-5.18009 -9.5028,-6.18518 -4.3449,-1.42 -8.8756,-2.06932 -13.3332,-1.29953 -4.354,1.07337 -8.0947,3.31405 -11.5832,6.99267 -1.3036,1.44781 0.2327,3.90484 1.5362,2.45702 z"
       inkscape:connector-curvature="0" />
    <path
       style="color:#000000;fill:#000000;fill-opacity:1;fill-rule:nonzero;stroke:#000000;stroke-width:6;stroke-linecap:butt;stroke-linejoin:miter;stroke-miterlimit:4;stroke-opacity:1;stroke-dasharray:none;stroke-dashoffset:0;marker:none;visibility:visible;display:inline;overflow:visible;enable-background:accumulate"
       id="path3210"
       d="m 1560.4779,527.78305 c -3.8003,-1.35094 -7.6112,-1.83573 -11.5675,-1.07918 -3.1437,0.87146 -4.8448,3.08899 -5.9108,6.0267 -0.5378,1.85669 -0.6289,3.7955 -0.6432,5.71628 0.763,1.82967 -0.014,3.17277 1.28,1.19991 -0.9217,-0.26435 -2.6486,-0.8452 -3.8444,-1.20619 -1.5716,-0.474 -4.0137,-0.79551 -4.8913,1.06866 -0.1999,0.4248 -0.1754,0.9225 -0.2632,1.38374 0.1148,2.56349 1.1016,4.89672 2.2066,7.16765 0.7234,1.49947 1.1795,3.08973 1.4893,4.71909 0.09,0.61475 -0.4208,0.69167 -1.0508,1.09737 -1.9344,1.01438 -3.1991,2.66758 -4.0005,4.65517 -0.6453,2.92065 -0.5002,5.92596 0.075,8.83941 0.6925,2.36286 1.5248,4.53922 3.7602,5.76753 2.0844,0.74976 4.0916,-0.11576 5.9413,-1.06579 0.6013,-0.18032 1.5932,-1.31164 2.1422,-0.58759 0.8101,1.12748 1.4897,2.33672 2.2716,3.47928 1.212,1.80521 2.757,2.57349 4.9067,2.41414 2.1654,-0.27237 3.8582,-1.54262 5.6559,-2.65883 1.2271,-0.74472 2.3176,-2.04371 3.8336,-1.90723 0.6063,0.47925 1.2764,0.80416 1.5495,1.61555 0.7446,1.33113 1.5417,2.53848 2.7895,3.43714 2.4316,0.75242 4.8891,-0.1205 7.1678,-1.00342 2.8456,-1.37445 5.3868,-3.24151 7.8612,-5.18274 1.6001,-1.57148 3.5039,-2.89753 4.6818,-4.83242 0.5116,-1.75513 1.1011,-3.48953 1.6733,-5.23296 1.1194,-2.76984 2.0731,-5.62047 3.3098,-8.33956 0.9309,-1.6367 1.742,-3.1908 1.3793,-5.09797 -0.4375,-1.40184 -1.6603,-1.83211 -2.6791,-2.67179 -1.289,-0.61885 -1.405,-1.79424 -1.6191,-3.09356 -0.4288,-2.26187 0.1183,-4.47825 0.5073,-6.70012 0.2817,-1.69946 0.7628,-3.38649 10e-5,-5.00371 -1.2068,-1.37978 -2.3661,-0.26234 -3.6192,-0.52699 -1.055,-0.12812 -1.5957,-0.66189 -2.2155,-1.45247 -0.9035,-1.31451 -1.2191,-2.82477 -1.466,-4.36892 -0.6181,-2.28279 -2.3652,-2.85925 -4.4059,-1.90758 -1.2018,0.65105 -2.2812,1.46585 -3.6446,1.70675 -0.8567,-0.31622 -1.4336,-0.99903 -1.9882,-1.72225 -1.5349,-1.84435 -3.2715,-1.7987 -5.2173,-0.62778 -1.7279,1.12207 -3.4961,2.17759 -5.2408,3.27437 -1.5958,1.00328 -0.1769,3.26007 1.4189,2.25679 l 0,0 c 1.7492,-1.09982 3.5213,-2.15969 5.2548,-3.28326 0.8555,-0.60701 0.8923,-0.82809 1.6824,0.0193 1.189,1.50581 2.5577,2.72999 4.5902,2.70124 1.6451,-0.32933 3.0171,-1.1556 4.4485,-2.00007 0.073,-0.1047 0.3154,-0.10444 0.3046,-0.23151 -0.029,-0.34206 -0.376,-0.42087 0.1657,0.23828 0.3241,1.99629 0.8062,3.93541 2.0124,5.60526 1.0234,1.27016 2.1661,2.17346 3.8247,2.41473 0.7384,0.12233 3.3231,0.426 1.7632,-0.80446 0.4474,0.12316 -0.302,2.82632 -0.2938,3.25252 -0.4414,2.5218 -1.0053,5.04704 -0.5088,7.61133 0.3217,1.81367 0.7646,3.81166 2.5713,4.71574 0.5493,0.43789 1.1783,0.83035 1.7438,1.13861 0.3069,1.26876 -0.7187,2.32433 -1.1993,3.46241 -1.2583,2.81524 -2.2779,5.73942 -3.4134,8.60683 -0.5125,1.57731 -1.1248,3.12695 -1.4611,4.75111 -0.7845,1.69989 -2.8595,2.61803 -4.0056,4.04488 -2.2715,1.78266 -4.5938,3.50194 -7.1889,4.79821 -1.4785,0.5883 -3.166,1.14791 -4.7217,1.2632 -0.9122,-0.46455 -1.2358,-1.53434 -1.8312,-2.30877 -0.8169,-1.65631 -2.0957,-2.7029 -3.8978,-3.18644 -2.1283,-0.01 -3.6724,1.05693 -5.3227,2.30703 -1.4796,0.91888 -2.8196,2.01965 -4.5918,2.2798 -1.0948,0.35729 -1.7829,-0.49027 -2.3784,-1.29594 -1.0238,-1.42657 -1.7403,-3.106 -3.1185,-4.25868 -1.7317,-0.8535 -3.1108,-0.48477 -4.6998,0.52147 -1.063,0.54656 -2.2851,1.25099 -3.5121,1.06192 -1.5102,-0.63805 -1.8001,-2.51046 -2.3565,-3.91326 -0.4907,-2.43966 -0.6158,-4.93483 -0.1867,-7.40063 0.4568,-1.52609 1.6272,-2.62287 3.001,-3.37175 1.3214,-0.9319 2.5377,-2.00218 2.166,-3.79978 -0.3573,-1.85885 -0.885,-3.67432 -1.7106,-5.3849 -0.9082,-1.86536 -1.7543,-3.75426 -1.9421,-5.85089 -1.2016,-0.34413 1.725,-0.48377 1.726,-0.0495 1.793,0.53576 3.5365,1.35449 5.4555,1.18173 1.3903,-1.39088 1.7108,-1.95081 0.5416,-3.70958 0.011,-1.62271 0.072,-3.26212 0.4883,-4.83949 0.7148,-2.04848 1.707,-3.64003 3.9099,-4.30586 3.424,-0.68214 6.7025,-0.22307 10.0075,0.91287 1.7326,0.74253 2.7827,-1.70769 1.0501,-2.45022 z"
       inkscape:connector-curvature="0" />
    <path
       style="color:#000000;fill:#000000;fill-opacity:1;fill-rule:nonzero;stroke:#000000;stroke-width:6;stroke-linecap:butt;stroke-linejoin:miter;stroke-miterlimit:4;stroke-opacity:1;stroke-dasharray:none;stroke-dashoffset:0;marker:none;visibility:visible;display:inline;overflow:visible;enable-background:accumulate"
       id="path3212"
       d="m 1625.972,567.47168 c -2.1231,-2.16434 -4.3458,-3.28739 -7.3795,-3.00295 -1.4927,0.4845 -2.6463,1.24529 -4.231,1.13363 -1.0939,-0.52413 -1.9059,-1.51596 -2.6313,-2.47159 -1.2477,-1.95421 -3.2316,-0.99439 -4.485,0.30902 -0.8895,1.04897 -1.7079,2.04195 -2.9436,2.678 -1.7513,0.47121 -2.7324,0.42994 -3.0951,2.54192 0.3009,1.6617 0.1163,3.33705 -0.392,4.94187 -0.6041,1.48185 -1.7539,2.55878 -2.2514,4.09654 -0.2161,2.22289 0.8064,4.12916 1.7687,6.04448 1.1705,2.25868 2.541,4.32058 4.8336,5.51331 2.9705,0.86042 5.4876,-1.09512 7.8684,-2.6173 2.1641,-1.48674 4.3356,-3.11515 6.8568,-3.9256 1.1356,-0.30807 0.5976,-0.0116 0.6737,0.15541 0.8737,-0.12208 1.7953,-0.0557 2.621,-0.36624 0.062,-0.0233 0.5271,-1.33407 0.5621,-1.41484 0.2888,-0.66629 0.6776,-1.27411 1.0849,-1.87134 0.1221,-0.73887 1.4471,-1.05603 0.8713,-0.708 -0.1695,0.14965 -0.2018,-0.22626 -0.3126,-0.1796 -0.5007,0.21103 -0.1118,1.87165 -0.027,2.16243 0.8489,0.0289 1.7043,0.19553 2.5468,0.0868 0.9859,-0.12725 2.6004,-3.48397 2.9956,-4.30233 0.8015,-2.43717 0.6674,-4.76962 -0.5023,-7.03282 -0.9064,-1.4573 -2.3217,-2.40668 -3.5643,-3.54119 -1.3929,-1.26993 -3.1889,0.70004 -1.7959,1.96997 l 0,0 c 1.031,0.93865 2.1982,1.71961 3.026,2.8587 0.8818,1.41568 0.8098,3.01162 0.4325,4.59345 -0.3879,0.81729 -0.7811,1.68206 -1.2951,2.43129 -0.1174,0.17114 -0.2522,0.33152 -0.4005,0.47667 -0.174,0.17026 -0.7057,0.26868 -0.5626,0.46571 0.3491,0.48098 1.0304,0.59246 1.5457,0.88869 0.1317,1.2468 0.6197,-2.35002 -0.6039,-3.09347 -1.8362,-1.03784 -3.4843,-0.26563 -4.5666,1.43768 -0.2272,0.34246 -1.9944,3.41301 -1.787,3.51967 0.6565,0.33762 1.4371,0.33873 2.1556,0.50809 -0.756,-1.64188 -2.2351,-2.12282 -3.9323,-1.57626 -2.7243,0.91667 -5.1279,2.55723 -7.4594,4.21232 -1.5596,1.00076 -3.3766,2.57192 -5.3198,2.43879 -1.7973,-0.54469 -2.6205,-2.86027 -3.5625,-4.28696 -0.6907,-1.37407 -1.4885,-2.7032 -1.5453,-4.28329 0.5302,-1.1277 1.8224,-2.47219 2.2,-3.89661 0.5291,-1.84217 0.8711,-3.7968 0.5039,-5.70476 -0.1381,0.20608 -0.6105,0.46106 -0.5134,0.42965 0.7162,-0.23177 1.5188,-0.22368 2.19,-0.61686 1.5143,-0.8169 2.6257,-1.96881 3.7082,-3.28516 0.1069,-0.18104 0.3509,-0.26184 0.4394,-0.45256 0.047,-0.10132 -0.2034,-0.10905 -0.2695,-0.19908 -0.061,-0.0836 -0.2232,-0.34811 -0.155,-0.26992 0.1291,0.14806 0.2264,0.32111 0.3396,0.48167 1.1978,1.56065 2.5953,3.07652 4.5918,3.51472 1.7204,0.0893 3.1542,-0.33382 4.6634,-1.1431 2.229,-0.26204 3.6402,0.63837 5.2202,2.23633 1.3329,1.33288 3.2179,-0.5521 1.885,-1.88498 z"
       inkscape:connector-curvature="0" />
  </g>
</svg>
