<?xml version="1.0" encoding="UTF-8" standalone="no"?>
<!-- Created with Inkscape (http://www.inkscape.org/) -->

<svg
   xmlns:dc="http://purl.org/dc/elements/1.1/"
   xmlns:cc="http://creativecommons.org/ns#"
   xmlns:rdf="http://www.w3.org/1999/02/22-rdf-syntax-ns#"
   xmlns:svg="http://www.w3.org/2000/svg"
   xmlns="http://www.w3.org/2000/svg"
   xmlns:sodipodi="http://sodipodi.sourceforge.net/DTD/sodipodi-0.dtd"
   xmlns:inkscape="http://www.inkscape.org/namespaces/inkscape"
   width="675.49786"
   height="946.414"
   id="svg2"
   version="1.1"
   inkscape:version="0.48.3.1 r9886"
   sodipodi:docname="slimy_vp.svg"
   inkscape:export-filename="/mnt/home_folders/arthurb/inkscape/vim_waz_ere/slimy_vp.png"
   inkscape:export-xdpi="26.629999"
   inkscape:export-ydpi="26.629999">
  <defs
     id="defs4">
    <clipPath
       clipPathUnits="userSpaceOnUse"
       id="clipPath3232">
      <rect
         style="color:#000000;fill:#eeeeee;fill-opacity:1;fill-rule:nonzero;stroke:none;stroke-width:6;marker:none;visibility:visible;display:inline;overflow:visible;enable-background:accumulate"
         id="rect3234"
         width="908.31921"
         height="399.16373"
         x="-49.673679"
         y="547.25031" />
    </clipPath>
  </defs>
  <sodipodi:namedview
     id="base"
     pagecolor="#ffffff"
     bordercolor="#666666"
     borderopacity="1.0"
     inkscape:pageopacity="0.0"
     inkscape:pageshadow="2"
     inkscape:zoom="0.40080395"
     inkscape:cx="328.79368"
     inkscape:cy="466.78904"
     inkscape:document-units="px"
     inkscape:current-layer="layer1"
     showgrid="false"
     inkscape:window-width="1440"
     inkscape:window-height="847"
     inkscape:window-x="0"
     inkscape:window-y="31"
     inkscape:window-maximized="1"
     fit-margin-top="0"
     fit-margin-left="0"
     fit-margin-right="0"
     fit-margin-bottom="0" />
  <metadata
     id="metadata7">
    <rdf:RDF>
      <cc:Work
         rdf:about="">
        <dc:format>image/svg+xml</dc:format>
        <dc:type
           rdf:resource="http://purl.org/dc/dcmitype/StillImage" />
        <dc:title></dc:title>
      </cc:Work>
    </rdf:RDF>
  </metadata>
  <g
     inkscape:label="Layer 1"
     inkscape:groupmode="layer"
     id="layer1"
     transform="translate(-1565.8729,175.53043)">
    <path
       style="color:#000000;fill:#000000;fill-opacity:1;fill-rule:nonzero;stroke:#000000;stroke-width:6;stroke-linecap:butt;stroke-linejoin:miter;stroke-miterlimit:4;stroke-opacity:1;stroke-dasharray:none;stroke-dashoffset:0;marker:none;visibility:visible;display:inline;overflow:visible;enable-background:accumulate"
       d="m 1732.6783,-69.921365 c -7.936,0.549472 -16.5115,3.500613 -20.9658,10.518518 -7.3397,11.622891 -0.7624,28.936303 12.0619,33.404251 7.3945,2.632454 15.5209,-0.270283 21.3808,-4.997871 1.038,-0.87801 2.0057,-1.737611 0.8432,0.01512 -3.3097,6.13628 -9.2951,11.523841 -16.6101,11.611172 -8.9719,0.121087 -16.8399,-5.829672 -21.7566,-12.927024 -5.1535,-7.375798 -7.5286,-17.407547 -3.748,-25.897447 2.817,-6.335776 8.512,-11.15659 15.0127,-13.419106 4.4946,-1.65645 9.0992,-3.675105 13.9689,-3.63928 3.5801,0.300878 0.9558,3.941802 -0.187,5.331665 z"
       id="path2995"
       inkscape:connector-curvature="0" />
    <path
       style="color:#000000;fill:#000000;fill-opacity:1;fill-rule:nonzero;stroke:#000000;stroke-width:6;stroke-linecap:butt;stroke-linejoin:miter;stroke-miterlimit:4;stroke-opacity:1;stroke-dasharray:none;stroke-dashoffset:0;marker:none;visibility:visible;display:inline;overflow:visible;enable-background:accumulate"
       d="m 1749.4586,-35.743523 c 20.2064,33.1025767 48.763,69.855342 89.9007,73.844696 38.64,3.401153 79.2261,1.896705 114.209,-17.904311 40.4278,-16.2498432 70.1455,-71.767953 40.0534,-109.904575 -21.2346,-34.362277 -51.9962,-64.540377 -93.2813,-71.757997 -36.4649,-20.06167 -73.6236,25.31644 -100.0605,23.49192 30.7991,-16.9304 63.7756,-43.34995 100.9591,-29.13532 37.4807,7.13148 67.8101,31.12931 89.0812,62.06322 29.0788,30.878832 26.7009,78.818956 -2.8351,108.5097025 -36.499,33.2710655 -89.5172,47.2974755 -137.6563,40.3307465 -47.8529,3.060724 -82.635,-38.8711877 -105.1247,-76.368554 -2.4951,-3.092967 2.8594,-6.662412 4.7545,-3.169528 z"
       id="path2997"
       inkscape:connector-curvature="0" />
    <path
       style="color:#000000;fill:#000000;fill-opacity:1;fill-rule:nonzero;stroke:#000000;stroke-width:6;stroke-linecap:butt;stroke-linejoin:miter;stroke-miterlimit:4;stroke-opacity:1;stroke-dasharray:none;stroke-dashoffset:0;marker:none;visibility:visible;display:inline;overflow:visible;enable-background:accumulate"
       d="m 1709.3649,-130.81508 c 6.2017,-28.16138 24.8961,-15.06311 43.5395,-30.67116 16.5844,16.37224 40.0407,-10.85837 46.7013,16.41216 24.728,-6.40071 15.0232,42.33993 0.869,34.73591 2.3515,34.328346 -46.7664,23.362349 -62.2641,42.295654 -15.5401,-5.951927 -29.6672,-2.395929 -38.475,-31.386375 -14.1903,-19.444999 24.3558,-0.271487 3.2753,-21.074139 -12.8338,-16.70922 19.0653,-16.5462 14.8337,-35.23148 33.2864,-3.11861 -7.3113,2.1038 -0.8969,20.86107 -27.6185,-2.65682 12.7464,42.706766 -15.3772,28.00734 10.4,25.134934 25.1954,46.150862 44.8156,23.417513 20.8938,1.552049 53.0701,-8.874422 51.1588,-33.494253 18.4066,6.02633 14.4513,-31.77497 -4.8104,-25.31539 -2.885,-27.7202 -27.2297,8.18355 -40.7773,-13.59236 -18.5156,13.52761 -33.6908,3.88699 -40.6779,28.73464 l -1.6806,-1.2681 -0.2341,-2.43068 3e-4,-3.5e-4 z"
       id="path2999"
       inkscape:connector-curvature="0" />
    <path
       style="color:#000000;fill:#000000;fill-opacity:1;fill-rule:nonzero;stroke:#000000;stroke-width:6;stroke-linecap:butt;stroke-linejoin:miter;stroke-miterlimit:4;stroke-opacity:1;stroke-dasharray:none;stroke-dashoffset:0;marker:none;visibility:visible;display:inline;overflow:visible;enable-background:accumulate"
       d="m 1941.8469,-156.98754 c 13.7442,-30.72282 38.6679,-5.20994 58.4443,-12.0288 9.4482,12.79469 5.2469,19.58144 21.8339,20.3721 0.4987,21.23644 -7.6064,36.35295 -4.0865,53.641034 -11.6825,22.854892 -43.8713,-10.269574 -11.4399,2.701341 12.6594,-12.899255 1.6877,-33.310555 11.0225,-52.899835 -19.752,1.74443 -14.1704,-28.14195 -35.6678,-15.61591 -15.464,-26.94807 -34.5992,16.2086 -40.1065,3.83007 z"
       id="path3001"
       inkscape:connector-curvature="0" />
    <path
       style="color:#000000;fill:#000000;fill-opacity:1;fill-rule:nonzero;stroke:#000000;stroke-width:6;stroke-linecap:butt;stroke-linejoin:miter;stroke-miterlimit:4;stroke-opacity:1;stroke-dasharray:none;stroke-dashoffset:0;marker:none;visibility:visible;display:inline;overflow:visible;enable-background:accumulate"
       d="m 1831.1171,-91.36694 c 8.526,-28.33193 65.6784,-22.41143 57.3933,-1.894935 -20.1419,-35.777575 -49.1138,9.998865 -57.3933,1.894935 z"
       id="path3003"
       inkscape:connector-curvature="0" />
    <path
       style="color:#000000;fill:#000000;fill-opacity:1;fill-rule:nonzero;stroke:#000000;stroke-width:6;stroke-linecap:butt;stroke-linejoin:miter;stroke-miterlimit:4;stroke-opacity:1;stroke-dasharray:none;stroke-dashoffset:0;marker:none;visibility:visible;display:inline;overflow:visible;enable-background:accumulate"
       d="m 1914.7514,-99.953587 c 13.1784,-29.136983 70.0618,0.590017 58.2484,11.110619 -16.7926,-25.679222 -43.3742,-13.301212 -59.6442,-9.10693 l 1.3958,-2.003649 0,-4e-5 z"
       id="path3005"
       inkscape:connector-curvature="0" />
    <path
       style="color:#000000;fill:#000000;fill-opacity:1;fill-rule:nonzero;stroke:#000000;stroke-width:6;stroke-linecap:butt;stroke-linejoin:miter;stroke-miterlimit:4;stroke-opacity:1;stroke-dasharray:none;stroke-dashoffset:0;marker:none;visibility:visible;display:inline;overflow:visible;enable-background:accumulate"
       d="m 1889.4901,-25.28489 c -24.0222,-12.690255 -38.4464,12.481075 -5.5605,20.0804115 17.0002,-7.3680205 71.3681,-8.7917385 23.4986,-18.1826405 -32.2313,-18.795867 47.374,10.317545 -2.6417,15.1265469 -12.7493,9.3703194 -53.7788,0.7036543 -33.2881,-16.5390099 2.5691,1.131688 32.6469,-9.337727 17.9917,-0.485308 z"
       id="path3007"
       inkscape:connector-curvature="0"
       sodipodi:nodetypes="cccccc" />
    <path
       style="color:#000000;fill:#000000;fill-opacity:1;fill-rule:nonzero;stroke:#000000;stroke-width:6;stroke-linecap:butt;stroke-linejoin:miter;stroke-miterlimit:4;stroke-opacity:1;stroke-dasharray:none;stroke-dashoffset:0;marker:none;visibility:visible;display:inline;overflow:visible;enable-background:accumulate"
       d="m 1754.0642,-12.305511 c -41.244,33.331988 -68.3495,81.487744 -87.3656,130.325661 -13.2695,40.40198 4.8803,79.31076 7.8085,119.36837 7.8889,13.62377 17.278,48.42905 -0.2175,16.62424 -7.5938,-40.61839 -23.4134,-81.29783 -16.2882,-123.37677 13.0085,-52.334982 43.9533,-99.697377 81.0969,-138.1629471 2.6726,-1.7409725 18.9553,-18.1153589 14.9659,-4.7785539 z"
       id="path3009"
       inkscape:connector-curvature="0" />
    <path
       style="color:#000000;fill:#000000;fill-opacity:1;fill-rule:nonzero;stroke:#000000;stroke-width:6;stroke-linecap:butt;stroke-linejoin:miter;stroke-miterlimit:4;stroke-opacity:1;stroke-dasharray:none;stroke-dashoffset:0;marker:none;visibility:visible;display:inline;overflow:visible;enable-background:accumulate"
       d="m 1670.6351,252.6823 c 0.062,24.3519 -31.1547,88.13107 17.7565,67.39877 42.9291,-6.53596 83.7033,-24.28152 127.7079,-25.28575 46.6116,-14.51085 95.5495,-17.48556 141.7351,-33.49246 7.6921,9.25035 -59.1292,21.75375 -82.0912,25.03717 -40.2185,10.80438 -81.0916,16.67257 -122.0631,23.71652 -31.3712,5.05408 -72.4531,30.58987 -99.8965,11.1032 7.4004,-14.67542 1.9676,-74.13742 16.8513,-68.47745 z"
       id="path3011"
       inkscape:connector-curvature="0" />
    <path
       style="color:#000000;fill:#000000;fill-opacity:1;fill-rule:nonzero;stroke:#000000;stroke-width:6;stroke-linecap:butt;stroke-linejoin:miter;stroke-miterlimit:4;stroke-opacity:1;stroke-dasharray:none;stroke-dashoffset:0;marker:none;visibility:visible;display:inline;overflow:visible;enable-background:accumulate"
       d="m 1940,183.32596 c -5.879,18.45374 26.0922,81.71294 11.076,73.86913 -3.3828,-16.56327 -27.8122,-71.81546 -11.076,-73.86913 z"
       id="path3013"
       inkscape:connector-curvature="0" />
    <path
       style="color:#000000;fill:#000000;fill-opacity:1;fill-rule:nonzero;stroke:#000000;stroke-width:6;stroke-linecap:butt;stroke-linejoin:miter;stroke-miterlimit:4;stroke-opacity:1;stroke-dasharray:none;stroke-dashoffset:0;marker:none;visibility:visible;display:inline;overflow:visible;enable-background:accumulate"
       d="m 1794.8593,153.96961 c 9.2262,22.69751 4.1778,74.009 40.3737,45.06339 20.0567,-6.34974 89.0886,-22.48254 86.6633,-6.67237 -40.7205,-7.79282 -85.3699,21.13673 -119.1573,16.59536 1.263,-12.07202 -22.7301,-57.8718 -7.8797,-54.98638 z"
       id="path3015"
       inkscape:connector-curvature="0" />
    <path
       style="color:#000000;fill:#000000;fill-opacity:1;fill-rule:nonzero;stroke:#000000;stroke-width:6;stroke-linecap:butt;stroke-linejoin:miter;stroke-miterlimit:4;stroke-opacity:1;stroke-dasharray:none;stroke-dashoffset:0;marker:none;visibility:visible;display:inline;overflow:visible;enable-background:accumulate"
       d="m 1938.7503,188.93144 c 23.0086,0.74879 70.4875,-43.79594 60.4058,4.77949 -5.0327,27.43502 31.1458,72.48263 -19.008,69.05017 -26.3867,6.66292 -25.8592,-10.9664 -0.8609,-5.64877 49.1785,5.3883 0.7757,-61.3741 14.8291,-82.42121 -11.6157,1.57824 -55.2541,30.94468 -55.366,14.24032 z"
       id="path3017"
       inkscape:connector-curvature="0" />
    <path
       style="color:#000000;fill:#000000;fill-opacity:1;fill-rule:nonzero;stroke:#000000;stroke-width:6;stroke-linecap:butt;stroke-linejoin:miter;stroke-miterlimit:4;stroke-opacity:1;stroke-dasharray:none;stroke-dashoffset:0;marker:none;visibility:visible;display:inline;overflow:visible;enable-background:accumulate"
       d="m 2008.2599,180.06163 c 15.3933,-18.82201 55.4829,-80.766685 63.1289,-25.96024 -2.6748,27.14883 38.3731,-18.60743 41.3372,17.47568 22.5043,34.41347 -7.1145,69.30421 -39.1717,81.16173 -15.9276,17.31754 -72.8179,2.92429 -65.8002,-11.05117 33.6833,27.74998 80.644,5.8584 102.9358,-25.5285 12.0488,-25.33135 -7.996,-74.15534 -40.0575,-46.6535 -8.2081,-13.63062 -5.0808,-53.41085 -30.1529,-21.60234 -5.2402,5.66909 -28.0194,48.19447 -32.2196,32.15834 z"
       id="path3019"
       inkscape:connector-curvature="0" />
    <path
       style="color:#000000;fill:#000000;fill-opacity:1;fill-rule:nonzero;stroke:#000000;stroke-width:6;stroke-linecap:butt;stroke-linejoin:miter;stroke-miterlimit:4;stroke-opacity:1;stroke-dasharray:none;stroke-dashoffset:0;marker:none;visibility:visible;display:inline;overflow:visible;enable-background:accumulate"
       d="m 2077.6086,191.47498 c 9.641,-13.51933 51.9772,-29.31913 19.0056,-7.06309 -3.0979,1.70474 -23.7437,21.4505 -19.0056,7.06309 z"
       id="path3021"
       inkscape:connector-curvature="0" />
    <path
       style="color:#000000;fill:#000000;fill-opacity:1;fill-rule:nonzero;stroke:#000000;stroke-width:6;stroke-linecap:butt;stroke-linejoin:miter;stroke-miterlimit:4;stroke-opacity:1;stroke-dasharray:none;stroke-dashoffset:0;marker:none;visibility:visible;display:inline;overflow:visible;enable-background:accumulate"
       d="m 2089.0372,208.61784 c 12.0906,-12.09397 52.9263,-38.97568 21.4189,-9.09485 -2.3747,1.68916 -26.9808,24.38399 -21.4189,9.09485 z"
       id="path3023"
       inkscape:connector-curvature="0" />
    <path
       style="color:#000000;fill:#000000;fill-opacity:1;fill-rule:nonzero;stroke:#000000;stroke-width:6;stroke-linecap:butt;stroke-linejoin:miter;stroke-miterlimit:4;stroke-opacity:1;stroke-dasharray:none;stroke-dashoffset:0;marker:none;visibility:visible;display:inline;overflow:visible;enable-background:accumulate"
       d="m 2060.7943,116.48619 c 9.9038,16.46918 20.8034,69.48294 2.6588,24.46859 0.2471,-3.31523 -16.1,-32.97781 -2.6588,-24.46859 z"
       id="path3025"
       inkscape:connector-curvature="0" />
    <path
       style="color:#000000;fill:#000000;fill-opacity:1;fill-rule:nonzero;stroke:#000000;stroke-width:6;stroke-linecap:butt;stroke-linejoin:miter;stroke-miterlimit:4;stroke-opacity:1;stroke-dasharray:none;stroke-dashoffset:0;marker:none;visibility:visible;display:inline;overflow:visible;enable-background:accumulate"
       d="m 2064.4646,114.64573 c 41.8196,-22.682023 80.8949,-50.746222 122.1235,-74.747379 30.2914,-2.339892 18.2561,61.692399 29.3546,85.404959 5.1189,35.08486 14.0371,74.56231 14.4854,107.24138 -14.2612,-27.14949 -9.8743,-64.33093 -18.1586,-95.04679 -5.9043,-31.59585 -10.1806,-66.117307 -18.5017,-95.70423 -39.6885,25.114203 -79.8829,49.582068 -119.3926,74.96719 -0.268,6.59218 -18.868,3.5566 -9.9106,-2.11513 z"
       id="path3027"
       inkscape:connector-curvature="0" />
    <path
       style="color:#000000;fill:#000000;fill-opacity:1;fill-rule:nonzero;stroke:#000000;stroke-width:6;stroke-linecap:butt;stroke-linejoin:miter;stroke-miterlimit:4;stroke-opacity:1;stroke-dasharray:none;stroke-dashoffset:0;marker:none;visibility:visible;display:inline;overflow:visible;enable-background:accumulate"
       d="m 2100.5736,251.11247 c 6.0109,24.14608 6.3117,67.87274 38.6793,36.50308 31.3759,-12.13248 70.0652,-37.98719 99.1179,-38.98257 -38.1833,19.7379 -80.3134,33.84596 -118.3333,55.03887 -16.5283,17.10462 -30.777,-64.2782 -19.4639,-52.55938 z"
       id="path3029"
       inkscape:connector-curvature="0" />
    <path
       style="color:#000000;fill:#000000;fill-opacity:1;fill-rule:nonzero;stroke:#000000;stroke-width:6;stroke-linecap:butt;stroke-linejoin:miter;stroke-miterlimit:4;stroke-opacity:1;stroke-dasharray:none;stroke-dashoffset:0;marker:none;visibility:visible;display:inline;overflow:visible;enable-background:accumulate"
       d="m 2211.7416,160.06475 c 5.3156,30.10909 16.4593,60.01441 24.573,88.70963 -18.1763,-15.71405 -20.2414,-56.54055 -29.2409,-82.37618 -4.0519,-3.28596 1.379,-14.22479 4.6679,-6.33345 z"
       id="path3031"
       inkscape:connector-curvature="0" />
    <path
       style="color:#000000;fill:#000000;fill-opacity:1;fill-rule:nonzero;stroke:#000000;stroke-width:6;stroke-linecap:butt;stroke-linejoin:miter;stroke-miterlimit:4;stroke-opacity:1;stroke-dasharray:none;stroke-dashoffset:0;marker:none;visibility:visible;display:inline;overflow:visible;enable-background:accumulate"
       d="m 2003.7291,-10.806448 c 27.9027,28.793916 58.2211,54.883786 89.7225,79.47817 24.2086,41.772248 -29.8959,-24.201872 -45.611,-29.167704 -5.9144,-11.560046 -57.9055,-44.1384208 -44.1115,-50.310466 z"
       id="path3033"
       inkscape:connector-curvature="0" />
    <path
       style="color:#000000;fill:#000000;fill-opacity:1;fill-rule:nonzero;stroke:#000000;stroke-width:6;stroke-linecap:butt;stroke-linejoin:miter;stroke-miterlimit:4;stroke-opacity:1;stroke-dasharray:none;stroke-dashoffset:0;marker:none;visibility:visible;display:inline;overflow:visible;enable-background:accumulate"
       d="m 1647.778,189.82516 c -20.9476,51.07456 -53.0338,98.28035 -60.6832,154.23078 -5.7303,42.5148 -7.8024,85.58435 -12.8166,128.20302 26.3933,35.41966 84.8502,-0.40046 124.0131,5.16757 44.431,-3.2635 89.0615,-5.35653 132.6536,-15.60488 70.2994,-9.32377 139.4309,-29.63737 210.8904,-27.19473 25.0496,-9.38469 87.509,15.12895 61.1775,-30.92131 -9.3278,-44.29633 -19.7487,-88.73603 -33.1881,-131.80368 19.5746,12.90771 17.5802,58.40175 28.3268,83.17575 -0.605,28.24383 42.0058,91.76647 -10.5698,82.85735 -45.3134,2.45645 -90.8957,1.28352 -135.733,9.22937 -62.4053,10.01135 -124.4793,22.83791 -187.1555,31.13746 -54.893,2.80146 -109.4782,8.80425 -164.0449,15.34111 -52.5753,1.8735 -23.6324,-58.89236 -25.3989,-89.3784 0.9499,-67.03253 21.8746,-132.25752 55.9874,-189.69726 5.1789,-2.73651 9.89,-39.12457 16.5412,-24.74215 z"
       id="path3035"
       inkscape:connector-curvature="0" />
    <path
       style="color:#000000;fill:#000000;fill-opacity:1;fill-rule:nonzero;stroke:#000000;stroke-width:6;stroke-linecap:butt;stroke-linejoin:miter;stroke-miterlimit:4;stroke-opacity:1;stroke-dasharray:none;stroke-dashoffset:0;marker:none;visibility:visible;display:inline;overflow:visible;enable-background:accumulate"
       d="m 2072.4192,299.05127 c 23.8893,39.18376 36.3391,88.73829 67.1232,121.76815 36.4932,8.53254 65.8138,-32.56237 96.4926,-28.4143 -30.4875,11.42095 -60.5026,38.96563 -97.2562,34.07751 -32.1549,-26.20231 -41.4702,-74.31959 -63.5102,-109.56541 -0.5086,-2.91715 -15.9124,-24.12924 -2.8494,-17.86595 z"
       id="path3037"
       inkscape:connector-curvature="0" />
    <path
       style="color:#000000;fill:#000000;fill-opacity:1;fill-rule:nonzero;stroke:#000000;stroke-width:6;stroke-linecap:butt;stroke-linejoin:miter;stroke-miterlimit:4;stroke-opacity:1;stroke-dasharray:none;stroke-dashoffset:0;marker:none;visibility:visible;display:inline;overflow:visible;enable-background:accumulate"
       d="m 2197.9862,285.52165 c 17.4441,43.06099 29.4176,89.26141 26.8739,135.74957 -12.299,-28.13862 -5.1696,-77.70382 -23.9025,-110.70698 0.3124,-3.8648 -16.4691,-33.45102 -2.9714,-25.04259 z"
       id="path3039"
       inkscape:connector-curvature="0" />
    <path
       style="color:#000000;fill:#000000;fill-opacity:1;fill-rule:nonzero;stroke:#000000;stroke-width:6;stroke-linecap:butt;stroke-linejoin:miter;stroke-miterlimit:4;stroke-opacity:1;stroke-dasharray:none;stroke-dashoffset:0;marker:none;visibility:visible;display:inline;overflow:visible;enable-background:accumulate"
       d="m 2115.3083,337.59037 c 25.4514,21.58506 46.6455,82.19345 77.5418,33.41465 9.5793,-13.1619 41.6553,-25.29523 13.3415,-3.40578 -21.3355,21.66503 -50.0469,48.86183 -67.1827,5.90212 -0.012,-9.05477 -39.9817,-33.90251 -23.7006,-35.91099 z"
       id="path3041"
       inkscape:connector-curvature="0" />
    <path
       style="color:#000000;fill:#000000;fill-opacity:1;fill-rule:nonzero;stroke:#000000;stroke-width:6;stroke-linecap:butt;stroke-linejoin:miter;stroke-miterlimit:4;stroke-opacity:1;stroke-dasharray:none;stroke-dashoffset:0;marker:none;visibility:visible;display:inline;overflow:visible;enable-background:accumulate"
       d="m 2113.036,314.64573 c 19.3584,-1.64273 58.2875,-29.92321 65.5786,-18.75933 -14.9199,2.52116 -62.0019,32.67799 -65.5786,18.75933 z"
       id="path3043"
       inkscape:connector-curvature="0" />
    <path
       style="color:#000000;fill:#000000;fill-opacity:1;fill-rule:nonzero;stroke:#000000;stroke-width:6;stroke-linecap:butt;stroke-linejoin:miter;stroke-miterlimit:4;stroke-opacity:1;stroke-dasharray:none;stroke-dashoffset:0;marker:none;visibility:visible;display:inline;overflow:visible;enable-background:accumulate"
       d="m 1912.4192,339.05127 c 10.0773,25.63747 33.8393,60.65971 30.8765,83.55711 -11.6238,-27.49128 -26.6341,-57.88187 -34.8607,-84.77074 l 2.0813,-0.31677 1.9029,1.5304 0,0 z"
       id="path3045"
       inkscape:connector-curvature="0" />
    <path
       style="color:#000000;fill:#000000;fill-opacity:1;fill-rule:nonzero;stroke:#000000;stroke-width:6;stroke-linecap:butt;stroke-linejoin:miter;stroke-miterlimit:4;stroke-opacity:1;stroke-dasharray:none;stroke-dashoffset:0;marker:none;visibility:visible;display:inline;overflow:visible;enable-background:accumulate"
       d="m 1913.8083,320.61391 c 31.8346,7.5212 82.3294,-38.69557 95.9219,2.04836 12.907,34.95219 28.1528,69.76785 39.733,104.74551 -20.0257,-19.08808 -26.7117,-63.78835 -40.9937,-92.53343 -6.4748,-48.68394 -57.5037,-3.46904 -88.9746,-8.99304 -3.6247,3.03579 -13.3078,-2.26455 -5.6866,-5.2674 z"
       id="path3047"
       inkscape:connector-curvature="0" />
    <path
       style="color:#000000;fill:#000000;fill-opacity:1;fill-rule:nonzero;stroke:#000000;stroke-width:6;stroke-linecap:butt;stroke-linejoin:miter;stroke-miterlimit:4;stroke-opacity:1;stroke-dasharray:none;stroke-dashoffset:0;marker:none;visibility:visible;display:inline;overflow:visible;enable-background:accumulate"
       d="m 1945.2369,432.04248 c 35.5105,-2.80384 72.4759,-10.09413 106.6397,-14.26399 -27.0366,16.79481 -71.932,13.28802 -105.931,19.93415 -3.8822,0.84829 -4.6802,-5.53678 -0.7087,-5.67016 z"
       id="path3049"
       inkscape:connector-curvature="0" />
    <path
       style="color:#000000;fill:#000000;fill-opacity:1;fill-rule:nonzero;stroke:#000000;stroke-width:6;stroke-linecap:butt;stroke-linejoin:miter;stroke-miterlimit:4;stroke-opacity:1;stroke-dasharray:none;stroke-dashoffset:0;marker:none;visibility:visible;display:inline;overflow:visible;enable-background:accumulate"
       d="m 1970.5597,346.33485 c 20.5977,-7.3517 58.4349,3.4561 15.3445,4.28385 -3.0026,-0.19746 -25.6159,4.78923 -15.3445,-4.28385 z"
       id="path3051"
       inkscape:connector-curvature="0" />
    <path
       style="color:#000000;fill:#000000;fill-opacity:1;fill-rule:nonzero;stroke:#000000;stroke-width:6;stroke-linecap:butt;stroke-linejoin:miter;stroke-miterlimit:4;stroke-opacity:1;stroke-dasharray:none;stroke-dashoffset:0;marker:none;visibility:visible;display:inline;overflow:visible;enable-background:accumulate"
       d="m 1952.2069,97.066236 c 49.0224,25.914384 -21.285,5.163574 0,0 z"
       id="path3053"
       inkscape:connector-curvature="0" />
    <path
       style="color:#000000;fill:#000000;fill-opacity:1;fill-rule:nonzero;stroke:#000000;stroke-width:6;stroke-linecap:butt;stroke-linejoin:miter;stroke-miterlimit:4;stroke-opacity:1;stroke-dasharray:none;stroke-dashoffset:0;marker:none;visibility:visible;display:inline;overflow:visible;enable-background:accumulate"
       d="m 1975.064,131.35195 c 54.5053,29.41813 -23.3716,4.45662 0,0 z"
       id="path3055"
       inkscape:connector-curvature="0" />
    <path
       style="color:#000000;fill:#000000;fill-opacity:1;fill-rule:nonzero;stroke:#000000;stroke-width:6;stroke-linecap:butt;stroke-linejoin:miter;stroke-miterlimit:4;stroke-opacity:1;stroke-dasharray:none;stroke-dashoffset:0;marker:none;visibility:visible;display:inline;overflow:visible;enable-background:accumulate"
       d="m 1894.5988,54.350466 c -8.858,36.134374 87.294,-11.195382 39.5053,14.955317 -15.1016,6.106645 -63.2772,10.254113 -39.5053,-14.955317 z"
       id="path3057"
       inkscape:connector-curvature="0" />
    <path
       style="color:#000000;fill:#000000;fill-opacity:1;fill-rule:nonzero;stroke:#000000;stroke-width:6;stroke-linecap:butt;stroke-linejoin:miter;stroke-miterlimit:4;stroke-opacity:1;stroke-dasharray:none;stroke-dashoffset:0;marker:none;visibility:visible;display:inline;overflow:visible;enable-background:accumulate"
       d="m 1916.274,34.906278 c 29.3112,-21.297892 62.8687,24.993391 19.1174,29.51528 -19.5932,12.899419 -36.4278,1.086529 -6.6599,-3.678877 37.0932,1.717552 22.3195,-37.46354 -6.087,-21.44215 -3.191,4.506624 -14.3017,-1.117969 -6.3705,-4.394253 z"
       id="path3059"
       inkscape:connector-curvature="0" />
    <path
       style="color:#000000;fill:#000000;fill-opacity:1;fill-rule:nonzero;stroke:#000000;stroke-width:6;stroke-linecap:butt;stroke-linejoin:miter;stroke-miterlimit:4;stroke-opacity:1;stroke-dasharray:none;stroke-dashoffset:0;marker:none;visibility:visible;display:inline;overflow:visible;enable-background:accumulate"
       d="m 1869.5242,54.105685 c 52.9318,25.003353 66.7374,86.148125 95.7123,131.335435 -19.7865,-1.76848 -31.023,-58.48279 -49.2024,-79.52733 -3.0273,-21.544019 -53.8998,-42.622514 -46.5099,-51.808105 z"
       id="path3061"
       inkscape:connector-curvature="0" />
    <path
       style="color:#000000;fill:#000000;fill-opacity:1;fill-rule:nonzero;stroke:#000000;stroke-width:6;stroke-linecap:butt;stroke-linejoin:miter;stroke-miterlimit:4;stroke-opacity:1;stroke-dasharray:none;stroke-dashoffset:0;marker:none;visibility:visible;display:inline;overflow:visible;enable-background:accumulate"
       d="m 1960,31.897384 c -6.0728,21.833791 -10.312,66.133005 -22.3729,75.108416 4.2606,-21.570393 10.8153,-68.675532 22.3729,-75.108416 l 0,0 z"
       id="path3063"
       inkscape:connector-curvature="0" />
    <path
       style="color:#000000;fill:#000000;fill-opacity:1;fill-rule:nonzero;stroke:#000000;stroke-width:6;stroke-linecap:butt;stroke-linejoin:miter;stroke-miterlimit:4;stroke-opacity:1;stroke-dasharray:none;stroke-dashoffset:0;marker:none;visibility:visible;display:inline;overflow:visible;enable-background:accumulate"
       d="m 1632.3006,497.76498 c 39.4701,33.34104 4.9226,84.85007 5.8165,126.64075 -5.6925,38.9196 -12.8662,77.78331 -13.2264,117.2299 -13.7716,-13.37378 1.6165,-64.8878 3.8876,-91.59231 3.6017,-37.2791 11.4715,-73.90879 16.9918,-110.67638 11.1801,-13.56782 -28.5905,-41.42111 -13.4695,-41.60196 z"
       id="path3065"
       inkscape:connector-curvature="0" />
    <path
       style="color:#000000;fill:#000000;fill-opacity:1;fill-rule:nonzero;stroke:#000000;stroke-width:6;stroke-linecap:butt;stroke-linejoin:miter;stroke-miterlimit:4;stroke-opacity:1;stroke-dasharray:none;stroke-dashoffset:0;marker:none;visibility:visible;display:inline;overflow:visible;enable-background:accumulate"
       d="m 2026.2879,459.6839 c 8.4244,57.30361 22.3359,113.89591 27.8415,171.55723 4.6521,44.11367 11.9122,88.863 10.7281,133.16415 -11.5117,-24.94203 -6.0559,-69.75804 -12.4296,-102.03849 -5.3513,-39.89177 -8.6389,-80.12705 -17.8025,-119.54091 0.1375,-22.3018 -20.0688,-74.61321 -8.3375,-83.14198 z"
       id="path3067"
       inkscape:connector-curvature="0" />
    <path
       style="color:#000000;fill:#000000;fill-opacity:1;fill-rule:nonzero;stroke:#000000;stroke-width:6;stroke-linecap:butt;stroke-linejoin:miter;stroke-miterlimit:4;stroke-opacity:1;stroke-dasharray:none;stroke-dashoffset:0;marker:none;visibility:visible;display:inline;overflow:visible;enable-background:accumulate"
       d="m 2216.3494,435.53944 c -13.5686,63.80085 -22.342,128.56006 -38.2664,191.81623 -8.7789,17.82568 16.2668,64.63404 2.4054,64.12417 -10.5253,-31.80362 -11.9329,-66.08668 -0.6447,-97.99456 13.5489,-53.18163 17.8634,-108.88403 32.4942,-161.45578 2.1101,-1.19639 5.0332,1.12293 4.0115,3.50994 z"
       id="path3069"
       inkscape:connector-curvature="0" />
    <path
       style="color:#000000;fill:#000000;fill-opacity:1;fill-rule:nonzero;stroke:#000000;stroke-width:6;stroke-linecap:butt;stroke-linejoin:miter;stroke-miterlimit:4;stroke-opacity:1;stroke-dasharray:none;stroke-dashoffset:0;marker:none;visibility:visible;display:inline;overflow:visible;enable-background:accumulate"
       d="m 2062.5457,94.347346 c 35.2854,-28.061608 73.939,-51.901206 116.6487,-66.987581 17.6691,-6.545107 53.75,-39.826515 40.8701,0.631857 0.4764,41.89196 5.5722,83.746238 9.712,125.234968 9.5395,21.86613 2.4366,48.72762 -4.0264,10.52032 -8.5441,-35.19817 -4.8679,-71.637854 -11.5565,-107.1865 -6.5829,-23.208899 18.811,-66.0419333 -14.4624,-32.871361 -40.9092,18.310351 -82.2941,35.170932 -118.118,62.729367 -4.1044,1.00812 -21.1256,21.990604 -19.0675,7.92893 z"
       id="path3073"
       inkscape:connector-curvature="0" />
    <path
       style="color:#000000;fill:#000000;fill-opacity:1;fill-rule:nonzero;stroke:#000000;stroke-width:6;stroke-linecap:butt;stroke-linejoin:miter;stroke-miterlimit:4;stroke-opacity:1;stroke-dasharray:none;stroke-dashoffset:0;marker:none;visibility:visible;display:inline;overflow:visible;enable-background:accumulate"
       d="m 2076.8314,94.347346 c 30.9416,-25.518452 67.4228,-43.255101 102.7548,-61.257566 -13.2959,22.035205 -61.9982,32.573077 -85.666,55.34798 -3.2684,0.907528 -20.2217,19.60204 -17.0888,5.909586 z"
       id="path3075"
       inkscape:connector-curvature="0" />
    <path
       style="color:#000000;fill:#000000;fill-opacity:1;fill-rule:nonzero;stroke:#000000;stroke-width:6;stroke-linecap:butt;stroke-linejoin:miter;stroke-miterlimit:4;stroke-opacity:1;stroke-dasharray:none;stroke-dashoffset:0;marker:none;visibility:visible;display:inline;overflow:visible;enable-background:accumulate"
       d="m 2209.1869,29.103967 c -0.3131,18.666662 21.0331,61.652866 8.5128,66.919439 0.6208,-16.288319 -22.3525,-64.496224 -8.5128,-66.919439 z"
       id="path3077"
       inkscape:connector-curvature="0" />
    <path
       style="color:#000000;fill:#000000;fill-opacity:1;fill-rule:nonzero;stroke:#000000;stroke-width:6;stroke-linecap:butt;stroke-linejoin:miter;stroke-miterlimit:4;stroke-opacity:1;stroke-dasharray:none;stroke-dashoffset:0;marker:none;visibility:visible;display:inline;overflow:visible;enable-background:accumulate"
       d="m 2060.7688,111.79226 c 9.1576,-38.506501 10.52,16.73375 0,0 z"
       id="path3079"
       inkscape:connector-curvature="0" />
    <path
       inkscape:connector-curvature="0"
       id="path3124"
       d="m 1941.344,-84.518787 c 7.0822,3.441285 5.5678,11.109447 -2.5183,7.033238 -1.7659,1.319294 -2.2997,-8.771482 2.5183,-7.033238 z"
       style="color:#000000;fill:#000000;fill-opacity:1;fill-rule:nonzero;stroke:#000000;stroke-width:3.07023859;stroke-linecap:butt;stroke-linejoin:miter;stroke-miterlimit:4;stroke-opacity:1;stroke-dasharray:none;stroke-dashoffset:0;marker:none;visibility:visible;display:inline;overflow:visible;enable-background:accumulate"
       sodipodi:nodetypes="ccc" />
    <path
       sodipodi:nodetypes="ccc"
       style="color:#000000;fill:#000000;fill-opacity:1;fill-rule:nonzero;stroke:#000000;stroke-width:3.07023859;stroke-linecap:butt;stroke-linejoin:miter;stroke-miterlimit:4;stroke-opacity:1;stroke-dasharray:none;stroke-dashoffset:0;marker:none;visibility:visible;display:inline;overflow:visible;enable-background:accumulate"
       d="m 1869.2155,-82.031597 c 7.0822,3.441285 5.5678,11.109447 -2.5183,7.033238 -1.7659,1.319294 -2.2997,-8.771482 2.5183,-7.033238 z"
       id="path3126"
       inkscape:connector-curvature="0" />
    <path
       style="color:#000000;fill:#000000;fill-opacity:1;fill-rule:nonzero;stroke:#000000;stroke-width:6;stroke-linecap:butt;stroke-linejoin:miter;stroke-miterlimit:4;stroke-opacity:1;stroke-dasharray:none;stroke-dashoffset:0;marker:none;visibility:visible;display:inline;overflow:visible;enable-background:accumulate"
       d="m 1732.6136,-58.398241 c -2.9325,-0.605314 -5.9048,-0.277629 -8.6587,0.851916 -3.6311,1.288164 -7.6916,3.442094 -8.5646,7.542934 -0.8579,1.480688 -0.7863,-0.717456 -0.5271,-0.05408 0.1402,-2.16501 2.1441,-4.683634 4.2614,-5.89526 2.7495,-1.678601 5.8689,-2.820269 9.0287,-3.362103 0.8291,0.133209 5.7511,-0.319794 4.4603,0.91659 z"
       id="path3128"
       inkscape:connector-curvature="0" />
    <path
       style="color:#000000;fill:#000000;fill-opacity:1;fill-rule:nonzero;stroke:#000000;stroke-width:6;stroke-linecap:butt;stroke-linejoin:miter;stroke-miterlimit:4;stroke-opacity:1;stroke-dasharray:none;stroke-dashoffset:0;marker:none;visibility:visible;display:inline;overflow:visible;enable-background:accumulate"
       d="m 1723.5323,-55.730439 c -1.6095,4.329628 -0.059,9.155374 2.0284,13.040003 1.9853,2.655382 -1.5117,0.151436 -1.4806,-1.439608 -1.4888,-3.699544 -2.6925,-7.967214 -1.1344,-11.851779 0.1371,-0.422058 0.7976,-0.138998 0.5866,0.251384 z"
       id="path3130"
       inkscape:connector-curvature="0" />
    <path
       style="color:#000000;fill:#cccccf;fill-opacity:1;fill-rule:nonzero;stroke:none;stroke-width:10.64436531;marker:none;visibility:visible;display:inline;overflow:visible;enable-background:accumulate"
       d="m 216.72263,25.918982 c -10.0845,2.617766 -20.50805,5.28412 -30.38079,0.665273 -11.04425,0.209458 -22.9283,4.489258 -31.54502,11.365077 -1.19555,2.99873 -1.01377,5.793791 -4.60148,6.819047 -6.08381,6.920319 -2.89606,15.676326 -1.8295,23.506307 -0.13795,5.010161 -7.15078,8.061667 -2.55021,13.360897 3.71461,14.299788 22.02879,21.565847 31.9331,9.701895 11.08287,-3.486317 23.74108,-2.610887 34.42787,-8.426789 10.64979,-4.385647 16.43454,-15.783238 17.07533,-26.610914 5.26768,0.109259 12.52432,-1.614543 11.30964,-8.759426 0.64182,-4.684998 -3.25336,-7.816501 -6.70817,-8.703986 -1.77481,-4.57303 -10.33546,-0.928193 -10.53348,-7.650638 -0.55491,-3.291537 -2.88901,-6.395947 -6.59729,-5.266743 z"
       id="path3173"
       inkscape:connector-curvature="0"
       transform="translate(1565.8729,-175.53043)" />
    <path
       style="color:#000000;fill:#cccccf;fill-opacity:1;fill-rule:nonzero;stroke:none;stroke-width:10.64436531;marker:none;visibility:visible;display:inline;overflow:visible;enable-background:accumulate"
       d="m 402.83271,9.8415546 c -7.89492,2.2759704 -15.78838,8.3116594 -20.17995,14.3033664 20.51689,13.922227 35.17026,33.932083 51.39233,52.113039 3.50406,4.962049 10.40389,1.486124 9.03663,-4.379712 0.50951,-12.811818 4.72658,-26.573886 1.10878,-39.029341 -8.03949,-4.01327 -10.47538,-15.658806 -19.12659,-18.017806 -5.24616,1.620397 -11.61311,5.200503 -14.19249,-2.217576 -2.03781,-2.151008 -5.06386,-3.3655489 -8.03871,-2.7719704 z"
       id="path3175"
       inkscape:connector-curvature="0"
       transform="translate(1565.8729,-175.53043)" />
    <path
       style="color:#000000;fill:#d9bb7a;fill-opacity:1;fill-rule:nonzero;stroke:none;stroke-width:6;marker:none;visibility:visible;display:inline;overflow:visible;enable-background:accumulate"
       d="m 313.24263,12.11457 c -22.17461,2.860752 -41.77354,15.883291 -61.42686,25.391247 -0.98011,11.331967 -0.73082,26.805612 -12.91738,31.766779 -3.38488,6.960359 -4.86966,15.511973 -13.25002,18.904836 -16.55722,9.33375 -36.76947,9.94895 -52.44567,20.900658 -5.44916,1.71085 -13.7669,-2.22241 -17.2971,3.9362 2.78898,3.5819 15.68489,-2.78935 13.52722,5.54394 -3.03072,1.59283 -10.83592,0.10935 -8.98119,6.26465 0.58089,4.78214 5.54119,10.27152 4.98955,14.13705 -7.32969,0.14635 -10.81406,-13.0105 -18.35044,-9.48014 -1.09379,9.32897 9.74676,18.27752 19.01571,17.85149 8.87257,0.2718 11.42691,-15.72537 20.78978,-10.86613 9.34762,20.86931 25.06763,39.29916 42.3557,54.1643 20.89606,18.48729 49.67076,22.50295 76.61679,20.91533 39.63842,0.0136 81.96679,-11.76873 110.21401,-40.54088 18.8275,-20.35414 28.86954,-53.55638 12.30754,-78.502194 C 407.1438,55.996244 373.70506,24.46 331.26044,15.551813 325.3068,14.198598 319.46219,11.64129 313.24263,12.11457 z m 54.77413,49.119312 c 16.36754,-0.352126 37.19674,5.797143 43.1873,21.954004 1.05826,3.976529 -3.91596,10.714343 -7.15169,5.044986 -8.03145,-10.742722 -21.28058,-17.588399 -34.7605,-13.194578 -9.0216,1.51366 -20.19109,5.880557 -27.83058,6.153773 6.31404,-9.606715 13.43313,-21.246196 26.55547,-19.958185 z m -68.2459,1.774061 c 11.26298,-1.409094 29.0737,4.811753 25.66844,19.071155 -0.0766,3.27567 -1.68355,9.512009 -4.04708,3.270925 -4.77446,-9.954733 -16.65674,-17.504024 -27.27618,-11.14332 -9.93934,3.814073 -19.63403,15.250017 -30.93519,11.420517 -1.46149,-7.891942 7.58636,-14.496933 13.58265,-18.350443 7.08918,-3.265191 15.20574,-3.949535 23.00736,-4.268834 z m 74.56599,26.610914 c 7.62235,-0.430022 9.5356,14.527213 -0.38807,10.089971 -4.88408,-0.549157 -4.62767,-10.172664 0.38807,-10.089971 z m -72.4593,2.217576 c 6.58143,-0.910374 10.09224,12.529857 2.27302,11.087877 -7.2715,-1.3075 -8.32174,-6.657463 -2.27302,-11.087877 z m 48.06597,57.490657 c 3.20532,3.20251 14.2516,4.34241 12.69562,10.47805 -10.18093,9.96241 -26.40805,11.85755 -40.02725,14.24793 -11.77627,0.59908 -29.49831,-8.12181 -25.66844,-22.17576 6.66585,-10.77025 22.56633,-5.87953 33.06776,-8.49874 7.52506,-2.13551 13.2794,3.40971 19.93231,5.94852 z"
       id="path3177"
       inkscape:connector-curvature="0"
       transform="translate(1565.8729,-175.53043)" />
    <path
       style="color:#000000;fill:#666666;fill-opacity:1;fill-rule:nonzero;stroke:none;stroke-width:6;marker:none;visibility:visible;display:inline;overflow:visible;enable-background:accumulate"
       d="m 188.55941,167.45578 c -19.72126,15.55345 -35.29827,36.43904 -49.61826,57.10259 -14.85489,25.36798 -30.6072,51.38615 -37.64336,80.05449 -5.37333,36.96694 5.04959,73.83431 11.75315,109.8809 2.60249,9.99858 10.69287,21.24021 6.26466,31.37871 -5.87709,0.0675 -7.49141,-9.72173 -12.69563,-9.31382 -2.91597,18.43313 -10.183995,37.49465 -6.763604,56.21555 6.684244,7.18422 18.326144,0.13566 26.506424,-0.41429 43.18623,-10.92267 86.64342,-20.72664 130.68328,-27.44139 41.48305,-10.17169 84.21083,-15.9085 125.0523,-28.249 0.22375,-9.60043 -5.91435,-20.28448 -8.03871,-30.21447 -3.14325,-15.21192 -12.99479,-32.86301 -5.15587,-47.78877 2.36263,-4.03662 9.73229,-4.40027 9.1475,1.38599 4.65085,2.88824 11.95593,-4.68709 5.43307,-8.09415 -17.76673,-27.92847 -25.14313,-62.76213 -48.62036,-86.98443 -10.58263,-11.60227 -27.01281,-18.37749 -34.48331,-32.32117 1.25563,-4.454 -0.18525,-9.69992 -5.87658,-9.59102 -22.88748,-0.007 -46.0734,-4.28365 -65.08586,-17.85149 -16.19872,-9.28464 -26.19646,-25.1076 -39.2511,-37.64335 -0.4959,-0.24463 -1.08369,-0.31345 -1.60774,-0.11088 z m 38.30863,159.77636 c 8.83857,-1.0338 6.31543,12.35231 9.00991,17.42623 3.53966,11.42806 3.08244,27.72059 14.60728,34.40961 10.08043,1.53434 16.97233,-8.8397 27.03505,-9.60183 24.47977,-5.94561 50.6229,-13.15449 75.86048,-8.85949 5.19693,1.30694 9.16702,12.69009 0.77624,9.89962 -25.25857,-1.89523 -49.92184,3.98021 -73.85786,10.77921 -15.19033,3.91611 -30.76702,6.04712 -46.44574,6.48648 -0.0502,-19.89728 -13.94908,-38.371 -11.64227,-58.15593 0.80433,-1.7696 2.84832,-2.31057 4.65691,-2.3839 z"
       id="path3179"
       inkscape:connector-curvature="0"
       transform="translate(1565.8729,-175.53043)" />
    <path
       style="color:#000000;fill:#666666;fill-opacity:1;fill-rule:nonzero;stroke:none;stroke-width:6;marker:none;visibility:visible;display:inline;overflow:visible;enable-background:accumulate"
       d="m 430.82961,172.00181 c -7.7989,13.64493 -25.23211,19.13993 -33.20821,32.32117 -4.27861,21.61691 -9.48661,43.60795 -14.30336,64.69779 7.55147,3.7776 18.1402,6.31606 23.33999,13.91529 0.81564,7.58368 -10.82462,4.78083 -14.63601,2.38389 -8.50186,-6.02824 -16.56168,-7.77088 -21.5354,3.42417 -8.01774,8.52492 6.62356,19.31306 8.66265,28.74337 6.76124,11.75335 11.66125,25.67382 19.58092,36.07837 9.7973,-4.12606 21.03061,-12.15443 31.9331,-8.81487 4.83993,1.04959 4.08441,6.77656 7.0408,8.70399 11.87879,-8.06073 18.52127,-22.72535 29.41767,-32.18964 6.02752,-6.81715 13.5675,-12.78082 21.19851,-16.81879 1.22054,-5.887 -3.40591,-13.57076 2.99373,-17.57429 4.27958,-8.86563 1.11091,-21.44005 12.44653,-26.07446 11.80911,-5.94711 17.29507,-13.82909 3.30691,-21.38515 -25.01328,-22.42326 -51.21392,-43.21909 -74.68553,-67.52172 l -1.5523,0.11088 z M 407.87769,304.6683 c 8.75667,2.22858 19.44555,7.22647 23.67263,15.4676 -2.40472,6.86669 -12.66583,1.23872 -17.18622,-0.44352 -5.8797,-1.50383 -15.68543,-8.46425 -8.75942,-14.58056 0.77528,-0.2741 1.42251,-0.43135 2.27301,-0.44352 z"
       id="path3181"
       inkscape:connector-curvature="0"
       transform="translate(1565.8729,-175.53043)" />
    <path
       style="color:#000000;fill:#666666;fill-opacity:1;fill-rule:nonzero;stroke:none;stroke-width:6;marker:none;visibility:visible;display:inline;overflow:visible;enable-background:accumulate"
       d="m 85.941075,336.37964 c -1.294745,7.22786 -6.887624,14.29532 -7.207122,21.17786 3.285976,3.04511 8.494205,6.63254 4.144912,11.50747 -23.248545,55.84454 -57.437009,109.57205 -61.247498,171.60888 -3.41323,35.26421 -7.383949,70.67752 -10.034532,105.88926 12.371877,16.3469 34.505962,14.81215 52.580494,11.78037 28.03558,-5.19006 56.237961,-9.08071 84.783241,-9.52666 43.60689,-3.02694 87.02128,-7.63086 129.74331,-16.55708 31.32779,-5.98912 63.36836,-9.45778 94.30243,-16.85358 3.54019,-2.48957 -1.20026,-9.05016 4.82323,-9.81277 30.57461,-4.9849 61.92372,-7.92824 92.69468,-12.8065 -3.54629,-12.37339 -10.94152,-25.71534 -14.73031,-38.98265 -4.30802,-9.4412 -5.64959,-21.88739 -11.60341,-29.76221 -12.20036,6.00399 -27.64938,5.65955 -40.96972,5.15586 -8.36952,-1.4768 -0.73911,-12.95355 5.43307,-10.977 10.68359,-0.88034 21.68159,0.6278 32.21029,-1.38599 -0.29061,-8.15072 -3.65336,-18.66476 -10.58893,-24.11614 -16.56208,-6.14989 -33.55906,5.64775 -49.85538,8.081 -11.78309,1.79464 -25.54707,6.51172 -36.79641,1.28826 -5.05156,-6.05415 6.44134,-7.97913 10.42261,-8.03871 25.08297,-1.31004 47.74724,-16.62528 72.90282,-15.24584 17.68964,3.05268 20.29242,24.76806 27.38706,38.25319 10.31684,24.24772 17.73568,49.87524 29.77096,73.29089 5.56094,2.41235 -0.71065,11.88589 0.77616,15.41216 17.45936,-1.49268 36.49273,2.68534 53.00007,-3.99164 7.084,-7.55315 -3.7902,-17.56052 -3.9775,-25.93356 -7.67856,-27.70352 -11.02299,-57.11717 -26.90225,-81.95152 -2.13993,-6.75189 -9.06235,-13.8963 -7.8724,-20.9561 2.74259,-2.70584 10.81984,-1.60017 7.04514,-7.69116 -3.09168,-9.09492 -4.71223,-19.36307 -9.0964,-27.62374 -18.04585,3.00078 -36.35712,-0.94685 -52.83375,-7.42888 -5.08062,3.23346 -8.18798,10.17908 -15.57847,9.7019 -16.23299,2.26767 -33.61604,0.31138 -48.01052,9.1475 -36.45541,10.78046 -74.46799,16.22968 -111.55593,24.97175 -42.21808,8.58321 -85.44276,12.95699 -126.22368,27.52937 -17.46339,4.02628 -37.79622,6.82902 -54.441491,-1.10879 -6.962306,-2.85545 0.08184,-12.02738 -0.992639,-17.44883 3.696641,-18.3892 1.471674,-39.84679 10.694534,-56.11926 3.448196,-2.0574 5.986166,-4.42132 3.936196,-9.1475 -4.53497,-27.33618 -12.095693,-54.38738 -14.69144,-81.884 l -0.94247,0 -0.498955,0.55439 z M 341.96024,510.23761 c 9.04228,0.31331 10.07026,13.3397 14.69144,19.07116 9.21061,21.71511 23.06418,42.96678 24.11615,67.02624 -1.37325,5.41356 -8.96494,-0.51366 -8.81867,-4.13984 -11.46125,-26.56717 -25.13344,-53.0402 -31.9293,-81.12597 -0.17501,-1.06446 1.34559,-0.63685 1.94038,-0.83159 z"
       id="path3200"
       inkscape:connector-curvature="0"
       transform="translate(1565.8729,-175.53043)" />
    <path
       style="color:#000000;fill:#666666;fill-opacity:1;fill-rule:nonzero;stroke:none;stroke-width:6;marker:none;visibility:visible;display:inline;overflow:visible;enable-background:accumulate"
       d="m 527.18329,421.25737 c -8.70051,5.65476 -20.27774,9.44826 -27.33163,16.57638 8.87739,10.95245 18.88949,20.97642 21.44347,35.69016 5.22648,25.65984 11.42858,51.44135 24.62668,74.35706 9.20024,15.58577 16.48085,34.08128 30.99063,45.40487 11.62036,5.30927 24.11865,-3.97771 35.1132,-7.24723 11.85457,-6.67344 26.85719,-10.50136 35.73835,-20.97143 2.45337,-6.7859 -1.13121,-14.11302 -1.44142,-21.01153 -10.6499,4.70518 -19.09437,17.16478 -29.99272,23.45087 -10.62738,7.32742 -28.48923,10.63442 -36.64544,-1.99582 -8.68494,-13.0694 -16.89152,-26.82715 -28.66218,-37.25528 -2.77786,-4.24171 -10.39426,-9.90028 -7.48432,-15.1904 8.00533,-7.77487 14.10532,4.8317 18.90484,9.7019 12.19739,12.51707 20.43762,31.09701 36.75633,38.14231 14.97595,3.42634 21.95002,-14.57854 32.26113,-21.80208 2.84666,-5.63971 15.89883,-6.06592 12.8111,-14.28897 -3.35321,-22.34784 -15.9325,-42.36898 -19.90274,-64.30971 0.2978,-3.1217 5.29968,-7.18946 -0.60984,-8.26047 -22.84932,5.6664 -44.35601,17.0729 -65.1413,27.9969 -4.57321,4.34086 5.14181,2.7333 6.70817,0.88703 14.7211,-5.18077 29.62154,-15.57636 45.57119,-14.46969 3.67007,1.41922 9.7031,6.5622 2.1067,7.65064 -20.32822,6.50612 -39.48648,20.03189 -61.2051,21.12241 -4.26393,0.32628 -11.69704,-5.96339 -5.71026,-8.81486 -1.27472,-6.58286 -9.30639,-10.40192 -10.36717,-17.57429 -6.52097,-14.72507 -6.25355,-31.70462 -6.98537,-47.1235 l -1.16422,-0.83159 -0.38808,0.16632 z"
       id="path3202"
       inkscape:connector-curvature="0"
       transform="translate(1565.8729,-175.53043)" />
    <path
       style="color:#000000;fill:#666666;fill-opacity:1;fill-rule:nonzero;stroke:none;stroke-width:6;marker:none;visibility:visible;display:inline;overflow:visible;enable-background:accumulate"
       d="m 649.81525,581.08917 c -23.77933,11.7845 -49.01751,27.14432 -76.50638,23.61719 -9.97646,-5.12987 -16.16593,-15.00286 -23.33998,-23.11823 -0.83504,9.89598 3.96944,26.24833 -7.37345,33.04188 -20.33224,3.75769 -42.10659,1.15358 -62.91726,3.29634 -44.90863,1.22231 -89.5379,6.28261 -133.67528,14.60026 -67.60132,11.72177 -135.19012,24.50329 -203.82586,28.3065 -24.88361,2.05354 -49.719503,4.6228 -74.530968,7.4068 0.7743,6.50874 10.531906,10.85329 13.02826,17.68517 13.879836,26.99013 2.682059,58.5392 -1.350431,86.74027 -7.945882,47.4587 -14.998455,95.33232 -17.665284,143.33326 12.294043,15.378 19.589853,38.50245 38.197749,44.4624 23.440514,7.50779 47.122184,-16.39513 71.704614,-17.63149 27.82368,-1.39937 54.90936,10.75602 82.75178,11.71245 52.97504,1.81979 105.66101,-13.9406 158.6077,-11.42783 28.67785,1.36101 56.42715,17.6965 84.93539,14.29771 11.88581,-1.41704 21.11386,-12.86278 33.0177,-14.11932 22.09193,-2.33198 46.36274,24.28606 65.39692,12.83219 12.16915,-7.32282 10.51633,-34.00056 12.3316,-40.78404 2.12431,-28.88912 10.30445,-32.28995 -0.25549,-60.71349 -9.78512,-34.94918 -2.48979,-71.2258 6.87448,-105.22399 11.00885,-47.33495 15.86896,-96.31298 29.38289,-142.86734 3.02394,-3.45299 11.83863,-0.11569 11.58683,-7.318 -0.78232,-5.73645 -2.12192,-14.87392 -6.37553,-18.12869 z m -185.61112,59.43104 c 16.26067,93.10687 33.23368,186.57659 37.08896,281.18866 -1.14196,5.56565 3.18029,18.3996 -3.16005,18.79396 -9.23732,0.57454 -5.97482,-17.99753 -7.96141,-26.59962 -5.75323,-84.29525 -17.33884,-168.14081 -34.17253,-250.93004 -2.47496,-11.53869 -4.63497,-25.66267 6.37553,-33.65172 0.60983,3.73292 1.21966,7.46584 1.8295,11.19876 z"
       id="path3204"
       inkscape:connector-curvature="0"
       transform="translate(1565.8729,-175.53043)"
       clip-path="url(#clipPath3232)"
       sodipodi:nodetypes="cccccccccccaaaaaaaccccccccacccc" />
    <path
       style="color:#000000;fill:#0197fd;fill-opacity:1;fill-rule:nonzero;stroke:none;stroke-width:6;marker:none;visibility:visible;display:inline;overflow:visible;enable-background:accumulate"
       d="m 368.79291,213.52592 c -8.96345,3.82173 -18.01478,6.19195 -27.83058,7.20713 -6.35105,-0.17372 -11.75754,4.20895 -9.75733,10.977 -1.66745,6.9565 4.77872,10.45856 10.6998,8.14959 10.91549,-5.20101 23.08304,-5.53127 34.42787,-9.25838 10.81931,-4.54741 0.84453,-17.90994 -7.53976,-17.07534 z"
       id="path3206"
       inkscape:connector-curvature="0"
       transform="translate(1565.8729,-175.53043)" />
    <path
       style="color:#000000;fill:#0197fd;fill-opacity:1;fill-rule:nonzero;stroke:none;stroke-width:6;marker:none;visibility:visible;display:inline;overflow:visible;enable-background:accumulate"
       d="m 373.28351,245.90254 c -10.32638,3.97934 -21.12113,6.03385 -32.2103,6.98536 3.23434,9.0812 13.04111,17.43597 18.01781,26.88811 1.49414,2.1052 6.96849,13.36659 9.1475,6.48641 1.27913,-13.31272 7.223,-27.35689 6.20921,-40.30444 -0.36824,-0.17927 -0.78155,-0.10299 -1.16422,-0.0554 z"
       id="path3208"
       inkscape:connector-curvature="0"
       transform="translate(1565.8729,-175.53043)" />
    <path
       style="color:#000000;fill:#ffffff;fill-opacity:1;fill-rule:nonzero;stroke:none;stroke-width:6;marker:none;visibility:visible;display:inline;overflow:visible;enable-background:accumulate"
       d="m 415.63921,358.16733 c -6.86124,2.74939 -11.27438,8.83613 -19.15133,9.19464 -5.67192,2.9305 -14.85518,2.86256 -18.65834,7.8807 4.76887,18.26406 10.02858,37.36255 14.74688,55.38396 7.89962,-1.10906 16.49201,-1.99456 24.78141,-0.77615 10.39773,1.8419 17.60503,-8.08246 15.07952,-17.79605 -1.92736,-18.79291 -10.11604,-36.52108 -8.75943,-55.7166 -2.01997,-2.40343 -5.63373,1.63888 -8.03871,1.8295 z"
       id="path3210"
       inkscape:connector-curvature="0"
       transform="translate(1565.8729,-175.53043)" />
    <path
       style="color:#000000;fill:#eec73e;fill-opacity:1;fill-rule:nonzero;stroke:none;stroke-width:6;marker:none;visibility:visible;display:inline;overflow:visible;enable-background:accumulate"
       d="m 624.20225,224.17029 c -40.139,23.48244 -79.64117,48.8861 -118.47401,74.39968 -5.86048,2.36226 0.49995,11.37065 0.5544,15.74479 3.14963,6.32406 1.96265,15.11494 5.65481,20.62346 10.96607,-0.89884 26.67608,-10.05513 34.81595,1.5523 3.18414,9.14568 7.0571,18.31084 12.36299,26.1674 -2.52045,13.91082 -3.59803,29.03396 -13.25002,40.24901 -3.65039,7.23985 -13.7931,11.31377 -15.02408,19.29291 5.28962,0.48226 7.75136,5.79531 8.14959,10.86612 3.75389,12.39996 2.39453,29.47548 14.24793,37.36616 9.42129,0.94579 15.17862,-9.25263 23.85689,-11.58084 27.73367,-13.42283 55.09199,-28.25114 84.97066,-36.20792 -3.64115,-12.64175 -10.84868,-26.0789 -13.41401,-39.91608 -2.67557,-15.58121 -9.83229,-31.03462 -11.3674,-46.68027 1.25253,-4.00919 4.62187,-7.54207 8.8703,-6.20922 1.47052,-6.81312 -3.39758,-15.2131 -3.47571,-22.64178 -5.62301,-27.45705 -8.03247,-56.03907 -17.03687,-82.52677 -0.32625,-0.4218 -0.92113,-0.67725 -1.44142,-0.49895 z"
       id="path3212"
       inkscape:connector-curvature="0"
       transform="translate(1565.8729,-175.53043)" />
    <path
       style="color:#000000;fill:#eec73e;fill-opacity:1;fill-rule:nonzero;stroke:none;stroke-width:6;marker:none;visibility:visible;display:inline;overflow:visible;enable-background:accumulate"
       d="m 645.93449,192.45895 c -8.15687,6.39898 -16.63493,13.33561 -27.10986,16.35463 2.34659,3.69502 19.1848,12.61554 17.62973,1.38598 0.60152,-6.06961 6.16245,-8.15556 10.20085,-10.92156 1.12273,-1.61449 2.92495,-7.15997 -0.72072,-6.81905 z"
       id="path3214"
       inkscape:connector-curvature="0"
       transform="translate(1565.8729,-175.53043)" />
    <path
       style="color:#000000;fill:#eec73e;fill-opacity:1;fill-rule:nonzero;stroke:none;stroke-width:6;marker:none;visibility:visible;display:inline;overflow:visible;enable-background:accumulate"
       d="m 577.59509,237.04022 c -8.05508,3.79931 -16.03874,7.82674 -23.9451,11.92984 -8.56123,4.65772 -16.9679,9.78764 -24.14114,16.44671 -3.71969,2.42547 -6.95605,5.45021 -10.47475,8.15674 -0.98634,0.43826 -0.92254,2.06633 0.27768,2.10649 2.0778,-0.7043 3.84812,-2.13744 5.7753,-3.17587 17.76373,-10.77614 35.29726,-21.98097 52.76693,-33.22376 0.93217,-0.33672 1.58718,-1.67356 0.47279,-2.24015 -0.25119,-0.0819 -0.4809,-0.0859 -0.73171,0 z"
       id="path3216"
       inkscape:connector-curvature="0"
       transform="translate(1565.8729,-175.53043)" />
    <path
       style="color:#000000;fill:#eec73e;fill-opacity:1;fill-rule:nonzero;stroke:none;stroke-width:6;marker:none;visibility:visible;display:inline;overflow:visible;enable-background:accumulate"
       d="m 646.00411,258.29351 c -0.70775,1.08324 -3e-5,2.46559 -0.0866,3.66356 0.85921,10.56336 1.433,21.24722 3.77328,31.58222 0.43999,1.23947 2.33089,0.58487 2.02627,-0.65291 -0.29149,-5.33381 -0.54316,-10.70306 -0.92308,-16.04127 -0.028,-0.58905 -0.37453,-1.21837 -0.91745,-1.40151 -0.0991,-4.33816 -0.23816,-8.69934 -1.28831,-12.93258 -0.39511,-1.35999 -0.40529,-2.92435 -1.13992,-4.13765 -0.32845,-0.47328 -1.0422,-0.40131 -1.44419,-0.0799 z"
       id="path3218"
       inkscape:connector-curvature="0"
       transform="translate(1565.8729,-175.53043)" />
    <path
       style="color:#000000;fill:#ffffff;fill-opacity:1;fill-rule:nonzero;stroke:none;stroke-width:6;marker:none;visibility:visible;display:inline;overflow:visible;enable-background:accumulate"
       d="m 329.26141,221.95205 c -10.17782,1.17086 -20.43463,1.37972 -30.67453,1.02838 -1.56915,0.20687 -0.88169,1.99011 -0.0265,2.64873 0.94737,1.00091 0.96723,2.44944 1.72235,3.53521 1.59668,0.76771 1.77464,-1.73351 2.64928,-2.19298 5.85302,2.74404 11.47954,5.9506 16.85601,9.53471 1.44855,0.77921 2.12073,-1.08393 2.68076,-2.0455 2.61802,-4.08687 6.19987,-7.46446 9.23077,-11.20548 0.69979,-1.67771 -1.44138,-1.5348 -2.43811,-1.30307 z"
       id="path3220"
       inkscape:connector-curvature="0"
       transform="translate(1565.8729,-175.53043)" />
    <path
       style="color:#000000;fill:#ffffff;fill-opacity:1;fill-rule:nonzero;stroke:none;stroke-width:6;marker:none;visibility:visible;display:inline;overflow:visible;enable-background:accumulate"
       d="m 402.75359,196.19471 c -5.69068,3.44952 -11.48051,6.72701 -17.47391,9.63513 -0.96697,0.45654 -3.11175,1.20577 -1.95646,2.56248 1.33451,0.87992 2.33229,2.19792 3.65724,3.03068 1.48097,-0.26121 1.76059,-2.13916 2.83317,-3.03068 2.30817,-2.4424 5.29985,-4.08203 8.02278,-6.00686 0.28039,1.4939 2.03724,0.66381 2.42454,-0.34734 1.15626,-1.58313 2.84651,-2.90082 3.75626,-4.65225 0.23925,-0.6902 -0.58989,-1.44583 -1.26362,-1.19116 z"
       id="path3222"
       inkscape:connector-curvature="0"
       transform="translate(1565.8729,-175.53043)" />
    <path
       style="color:#000000;fill:#d9bb7a;fill-opacity:1;fill-rule:nonzero;stroke:none;stroke-width:6;marker:none;visibility:visible;display:inline;overflow:visible;enable-background:accumulate"
       d="m 487.58843,315.83274 c -13.52374,8.36983 -19.06358,25.33948 -29.99272,36.47913 -3.66076,4.62657 -12.76355,15.20747 -17.51885,6.15377 -5.33536,2.24822 -2.82679,11.98272 -4.15795,16.90902 1.71905,13.69684 2.79193,28.82968 10.31173,40.58165 16.90186,15.24528 43.45779,11.14287 62.59108,2.60565 14.04856,-7.95501 28.76182,-18.72519 35.03771,-34.0398 -1.70492,-5.75167 -8.90114,2.70679 -11.8086,3.76988 -3.10161,4.94578 -13.00192,5.60766 -12.19667,-1.88494 4.16161,-11.64794 20.42127,-14.07897 24.11614,-25.72388 -2.57119,-6.72924 -10.42745,2.27721 -14.02617,3.76988 -5.95098,3.00647 -12.92896,11.98221 -20.06906,8.75942 -3.7166,-9.16903 8.2877,-15.55579 14.636,-19.73642 4.45384,-1.58134 14.60149,-6.74397 6.54185,-11.19876 -9.35588,-5.13528 -20.08877,1.11357 -27.33162,7.09624 -6.97496,-9.96504 -4.89723,-25.12053 -14.02617,-33.37452 -0.68824,-0.15496 -1.4003,-0.3243 -2.1067,-0.16632 z"
       id="path3236"
       inkscape:connector-curvature="0"
       transform="translate(1565.8729,-175.53043)" />
    <path
       style="color:#000000;fill:#333333;fill-opacity:1;fill-rule:nonzero;stroke:none;stroke-width:6;marker:none;visibility:visible;display:inline;overflow:visible;enable-background:accumulate"
       d="m 330.4427,147.5018 c -1.28081,0.71589 -1.91108,2.42878 -3.35413,3.07664 -1.58139,0.97446 -3.24579,2.96956 -5.07835,1.35542 -1.98016,-1.16231 -4.11014,-1.85138 -6.31379,-0.81742 -3.2133,1.06364 -6.79128,0.99593 -9.80647,2.50243 -1.92519,1.5672 -4.66056,4.808 -2.44924,7.17882 3.92913,3.84867 9.24506,5.85686 14.45414,7.19087 11.18873,-3.70982 22.99578,-5.37252 34.54275,-7.8062 2.02123,-1.25944 -0.87865,-3.22518 -2.23206,-3.74022 -4.84877,-1.51285 -10.15842,-1.75276 -14.16458,-5.20012 -2.01617,-0.87839 -3.33484,-3.5796 -5.59827,-3.74022 z"
       id="path4006"
       inkscape:connector-curvature="0"
       transform="translate(1565.8729,-175.53043)" />
  </g>
</svg>
